<?xml version="1.0" encoding="UTF-8"?>
<svg width="35px" height="35px" viewBox="0 0 35 35" version="1.1" xmlns="http://www.w3.org/2000/svg" xmlns:xlink="http://www.w3.org/1999/xlink">
    <title>Tick green light Copy</title>
    <g id="Tick-green-light-Copy" stroke="none" stroke-width="1" fill="none" fill-rule="evenodd">
        <path d="M17.5,0 C20.57125,0 23.59,0.8085 26.25,2.345 C28.91,3.87975 31.12025,6.09 32.655,8.75 C34.1915,11.41 35,14.42875 35,17.5 C35,20.57125 34.1915,23.59 32.655,26.25 C31.12025,28.91 28.91,31.12025 26.25,32.655 C23.59,34.1915 20.57125,35 17.5,35 C12.86075,35 8.407,33.1555 5.12575,29.87425 C1.8445,26.593 0,22.13925 0,17.5 C0,12.86075 1.8445,8.407 5.12575,5.12575 C8.407,1.8445 12.86075,0 17.5,0" id="path-path" fill="#414942"></path>
        <polygon id="Path" fill="#C1C9BF" fill-rule="nonzero" points="12.53125 25 18 19.53125 23.46875 25 25 23.46875 19.53125 18 25 12.53125 23.46875 11 18 16.46875 12.53125 11 11 12.53125 16.46875 18 11 23.46875"></polygon>
    </g>
</svg>