<?xml version="1.0" encoding="UTF-8"?>
<svg width="35px" height="35px" viewBox="0 0 35 35" version="1.1" xmlns="http://www.w3.org/2000/svg" xmlns:xlink="http://www.w3.org/1999/xlink">
    <title>Tick green light</title>
    <g id="Tick-green-light" stroke="none" stroke-width="1" fill="none" fill-rule="evenodd">
        <path d="M17.5,0 C20.57125,0 23.59,0.8085 26.25,2.345 C28.91,3.87975 31.12025,6.09 32.655,8.75 C34.1915,11.41 35,14.42875 35,17.5 C35,20.57125 34.1915,23.59 32.655,26.25 C31.12025,28.91 28.91,31.12025 26.25,32.655 C23.59,34.1915 20.57125,35 17.5,35 C12.86075,35 8.407,33.1555 5.12575,29.87425 C1.8445,26.593 0,22.13925 0,17.5 C0,12.86075 1.8445,8.407 5.12575,5.12575 C8.407,1.8445 12.86075,0 17.5,0" id="path-path" fill="#64DD91"></path>
        <path d="M24.6622246,13.3501416 C24.2107285,12.8842682 23.4774847,12.8830917 23.0248219,13.3477887 L23.0248219,13.3477887 L16.3993786,20.142953 L12.9600746,16.7459591 L12.9449081,16.7312535 C12.482912,16.2912619 11.7607515,16.3112615 11.322672,16.7800761 C10.8799257,17.2547729 10.8945089,18.0082879 11.3559217,18.4641616 L11.3559217,18.4641616 L15.6124686,22.6681989 L15.6276352,22.6829045 C16.0826313,23.1164256 16.7907919,23.1046611 17.2317881,22.6523168 L17.2317881,22.6523168 L24.6598913,15.0342271 L24.6744745,15.0189333 C25.1125541,14.553648 25.1084708,13.8107211 24.6622246,13.3501416 Z" id="path_0" fill="#00391C" fill-rule="nonzero"></path>
    </g>
</svg>