<svg height="2391" viewBox="0 0 2390 2391" width="2390" xmlns="http://www.w3.org/2000/svg" xmlns:xlink="http://www.w3.org/1999/xlink"><defs><circle id="a" cx="874.5" cy="874.5" r="874.5"/><mask id="b" fill="#fff"><use fill="#fff" fill-rule="evenodd" xlink:href="#a"/></mask></defs><g fill="none" fill-rule="evenodd" transform="translate(0 .910784)"><g transform="matrix(.8660254 -.5 .5 .8660254 0 874.5)"><use fill="#101010" xlink:href="#a"/><g fill="#212121" fill-rule="nonzero" mask="url(#b)"><g transform="translate(-711.765372 -208.497423)"><path d="m1059.46179 1.16997818c-1.46666.66675076-4.66664 1.20015137-6.9333 1.20015137-2.39998.13335015-4.39997.66675076-4.39997 1.46685167 0 .66675076-1.2 1.33350152-2.66665 1.33350152-2.26666 0-5.46664 1.33350152-22.66654 9.06781036-2.53332 1.2001513-4.93331 2.4003027-5.33331 2.8003532-.4.5334006-4.66664 2.9337033-9.59994 5.4673562-5.06664 2.5336529-9.06662 5.0673058-9.06662 5.6007064 0 .6667507-.933328 1.0668012-1.999989 1.0668012s-1.999989.5334006-1.999989 1.3335015c0 .6667508-1.199993 1.3335015-2.666651 1.3335015-1.466659 0-2.666652.5334006-2.666652 1.3335016 0 .6667507-.933328 1.3335015-1.999989 1.3335015s-1.999989.4000504-1.999989 1.0668012c0 .5334006-1.733324 1.733552-3.733312 2.667003-2.133322.8001009-5.066639 2.8003532-6.66663 4.2672049s-3.733312 2.667003-4.933306 2.667003c-1.06666 0-1.999988.5334006-1.999988 1.3335016 0 .6667507-.933329 1.3335015-1.999989 1.3335015-1.066661 0-1.999989.5334006-1.999989 1.3335015 0 .6667508-.933328 1.3335015-1.999989 1.3335015s-1.999989.5334006-1.999989 1.3335015c0 .6667508-.933328 1.3335016-1.999989 1.3335016-1.866656 0-4.933305 2.1336024-9.333281 6.2674571-1.066661.9334511-2.666652 1.733552-3.59998 1.733552-1.06666 0-3.066649 1.0668012-4.533308 2.4003027-1.333326 1.3335015-4.533308 3.2004037-6.799962 4.1338547-2.399986.9334511-4.399975 2.2669526-4.399975 2.9337034 0 .6667507-.933328 1.2001513-1.999989 1.2001513s-3.866645 1.0668012-6.266632 2.4003028c-2.399986 1.3335015-9.466613 4.400555-15.599913 6.9342079-14.133254 5.6007064-28.399841 6.2674571-36.266464 1.7335519l-7.999955-4.6672553c-1.733324-.933451-3.466647-2.1336024-3.866645-2.5336529-1.333326-1.4668516-18.53323-9.2011604-20.533219-9.2011604-1.066661 0-2.399986-.6667508-2.799984-1.3335016-.399998-.8001009-1.999989-1.3335015-3.466648-1.3335015-1.333325 0-2.533319-.6667507-2.533319-1.3335015 0-.8001009-1.466658-1.3335015-3.333314-1.3335015-1.866657 0-3.333315-.6667508-3.333315-1.3335015 0-.800101-1.466659-1.3335016-3.199982-1.3335016-1.866657 0-3.733313-.6667507-4.133311-1.3335015-.399997-.8001009-2.266654-1.3335015-4.13331-1.3335015-1.733323 0-3.199982-.6667508-3.199982-1.3335015 0-.8001009-2.133321-1.3335015-4.666641-1.3335015-2.533319 0-4.66664-.6667508-4.66664-1.3335016 0-.8001009-2.133322-1.3335015-4.666641-1.3335015s-4.66664-.6667507-4.66664-1.3335015c0-.8001009-2.666652-1.3335015-5.866634-1.3335015-3.333315 0-6.399965-.6667508-6.799962-1.3335015-.399998-.800101-4.133311-1.3335016-8.133288-1.3335016-3.999978 0-7.19996-.6667507-7.19996-1.3335015 0-.8001009-7.599958-1.3335015-19.999888-1.3335015-12.399931 0-19.999889.5334006-19.999889 1.3335015 0 .6667508-2.666651 1.3335015-5.866634 1.3335015-3.333314 0-6.399964.5334006-6.799962 1.3335016-.399997.6667507-2.266654 1.3335015-4.13331 1.3335015-1.733324 0-3.199982.5334006-3.199982 1.3335015 0 .6667508-1.733324 1.3335015-3.999978 1.3335015-2.133321 0-3.999977.5334006-3.999977 1.0668012 0 .6667508-2.133322 1.8669022-4.666641 2.9337034s-4.666641 2.2669526-4.666641 2.9337033c0 .5334006-.933328 1.0668012-1.999988 1.0668012-1.066661 0-1.999989.5334006-1.999989 1.0668012 0 .5334007-1.866656 2.1336025-4.266643 3.6004542-2.399987 1.3335015-7.999955 6.2674571-12.399931 10.9347124-11.999933 12.4015641-13.999922 14.8018669-13.999922 16.4020687 0 .8001009-.799995 2.4003027-1.599991 3.3337538-4.13331 4.6672553-5.066638 6.0007568-5.066638 7.8676592 0 1.066801-.399998 2.133602-.933328 2.400303-1.599991.66675-8.399953 14.135116-8.399953 16.402068 0 1.066801-.533331 2.000252-1.333326 2.000252-.666663 0-1.333326 1.066802-1.333326 2.400303 0 1.200152-1.466659 6.400808-3.333315 11.468113-1.866656 5.067306-3.333315 10.267962-3.333315 11.601464 0 1.466851-.53333 2.533652-1.333325 2.533652-.666663 0-1.333326 2.133603-1.333326 4.800606 0 2.533653-.533331 5.734056-1.199994 7.067558-.666663 1.200151-1.733323 5.867407-2.133321 10.401312-.933328 7.734309-.799996 8.267709 2.933317 12.268214 2.533319 2.533653 5.333303 4.133854 7.466625 4.133854 1.866656 0 3.866645.533401 4.266643 1.333502.53333.800101 9.733279 1.333502 23.333203 1.333502s22.799872.5334 23.333203 1.333501c.399998.666751 1.999989 1.333502 3.466647 1.333502 1.333326 0 3.733313.66675 5.199971 1.600201 1.999989 1.333502 3.466647 1.333502 7.066627 0 2.399987-.933451 6.66663-1.600201 9.333282-1.600201 2.666651 0 5.19997-.666751 5.599968-1.333502.399998-.800101 2.799985-1.333501 5.333304-1.333501s4.933306-.666751 5.333303-1.333502c.399998-.800101 2.53332-1.333502 4.666641-1.333502s4.266643-.66675 4.666641-1.333501c.399997-.800101 2.533319-1.333502 4.799973-1.333502 2.133321 0 3.866645-.66675 3.866645-1.333501 0-.800101 1.466658-1.333502 3.199982-1.333502 1.866656 0 3.733312-.66675 4.13331-1.333501.399998-.800101 1.999989-1.333502 3.466648-1.333502 1.333325 0 3.599979-.5334 4.933305-1.200151 1.199994-.666751 4.133311-1.866902 6.266632-2.800353 2.266654-.933451 5.066638-2.133603 6.266632-2.800353 1.333326-.666751 3.59998-1.200152 4.933305-1.200152 1.466659 0 3.06665-.666751 3.466648-1.333501.399998-.800101 2.266654-1.333502 4.13331-1.333502 1.733324 0 3.199982-.666751 3.199982-1.333501 0-.800101 1.466659-1.333502 3.333315-1.333502s3.333315-.666751 3.333315-1.333501c0-.800101 1.466658-1.333502 3.333314-1.333502 1.866657 0 3.333315-.666751 3.333315-1.333501 0-.800101 1.866656-1.333502 3.999978-1.333502 2.266654 0 3.999977-.666751 3.999977-1.333501 0-.800101 1.466659-1.333502 3.333315-1.333502s3.333315-.666751 3.333315-1.333501c0-.800101 1.333326-1.333502 2.799984-1.333502 1.599991 0 5.066639-.533401 7.73329-1.200151 2.666652-.666751 10.79994-2.000253 17.9999-2.800354 7.19996-.933451 14.399919-2.000252 15.999911-2.667003 1.599991-.66675 6.399964-2.400302 10.799939-4.000504l10.666607-4.000505c8.133288-3.067053 13.599924-4.267205 20.133221-4.267205 5.999967-.13335 7.73329.400051 9.866612 2.933704 1.466658 1.733552 2.666652 4.533905 2.666652 6.134107 0 3.200403-6.399965 13.735065-8.399953 13.868416-.533331 0-2.266655 1.200151-3.866646 2.667003-1.599991 1.466851-3.733312 2.667003-4.66664 2.667003s-1.733324.5334-1.733324 1.333501c0 .666751-.933328 1.333502-1.999989 1.333502-1.06666 0-1.999988.5334-1.999988 1.200151s-2.133322 2.133602-4.666641 3.333754c-6.266632 3.067053-16.799906 14.135116-21.999877 23.336276-1.066661 1.866903-2.399987 3.733805-2.799985 4.133855-4.533308 3.467104-17.199904 32.004037-17.199904 38.671544 0 4.400555 3.06665 9.334511 6.133299 10.134612 3.999978 1.066801 24.399864-.266701 34.266476-2.000253 26.533185-4.933955 48.266397-7.467608 54.533029-6.267457 2.666651.400051 6.266631 2.266953 8.26662 3.867155 3.333315 2.933703 3.466647 3.467104 3.466647 18.669021 0 10.668012-.53333 16.402069-1.599991 17.73557-4.799973 5.600707-7.999955 8.53441-9.733279 8.53441-1.06666 0-1.999988.533401-1.999988 1.333501 0 .666751-1.733324 1.333502-3.866645 1.333502-2.266654 0-4.399976.533401-4.799974 1.333502-.399997.66675-2.799984 1.333501-5.333303 1.333501s-4.933306.533401-5.333304 1.333502c-.399998.66675-2.799984 1.333501-5.333303 1.333501-2.53332 0-4.933306.533401-5.333304 1.333502-.399998.66675-1.866656 1.333501-3.199982 1.333501-1.466659 0-3.199982 1.600202-4.13331 4.000505-1.733324 4.000504-1.599991 4.133854 2.666651 15.335267 5.733302 15.201917 17.733235 31.337286 31.066494 42.138648 15.99991 12.934965 38.799783 21.202674 63.332979 23.202927 16.533245 1.200151 21.199885-.266701 27.599845-9.201161 1.46666-2.133602 3.33332-4.400555 3.99998-5.334006.79999-.800101 3.73331-4.533905 6.5333-8.134359 5.3333-6.667508 9.33328-10.801363 24.53319-24.803128 8.26662-7.734309 14.93325-16.93547 14.93325-20.535924 0-1.066801.66667-2.000252 1.33333-2.000252.79999 0 1.33332-1.200152 1.33332-2.667003 0-1.466852.53333-2.667003 1.2-2.667003.66666 0 1.59999-1.866902 2.13332-4.000505.53333-2.266952 1.46666-4.000504 2.13332-4.000504s1.19999-1.200152 1.19999-2.667003c0-1.466852.66667-2.667003 1.33333-2.667003.79999 0 1.33333-.666751 1.33333-1.333502 0-1.333501 7.86662-14.401816 10.93327-18.00227 9.99994-12.001514 16.26657-15.868669 25.99985-15.735318 3.99998 0 7.73329.800101 8.79995 1.866902s4.53331 4.000504 7.73329 6.534157c3.19999 2.533653 6.9333 5.867407 8.53329 7.467609 7.33329 7.200908 9.33328 7.867659 32.53315 8.80111 12.2666.5334 25.33319 1.333501 29.19984 1.866902 7.73329.933451 12.2666-.400051 20.93321-6.134107 13.19993-8.53441 24.1332-12.001514 38.13312-12.001514 8.26662 0 10.26661-.40005 12.2666-2.667003 1.2-1.466852 2.26666-3.200404 2.26666-4.000504 0-1.600202 6.53329-13.735066 7.86662-14.668517.66666-.400051 2.66665-3.733804 4.53331-7.467609l3.46664-6.934208-3.19998-8.401059c-5.99996-15.201917-3.59998-30.670535 5.06664-32.670787 5.19997-1.066802 15.19992 1.466851 18.26657 4.933955.39999.400051 2.66665 1.466852 5.06663 2.400303 2.26666 1.066801 4.26665 2.266953 4.26665 2.667003 0 .533401 2.53332 2.400303 5.7333 4.133855 3.06665 1.733552 5.86663 3.467104 6.26663 3.867154.4.400051 3.33331 2.133603 6.39996 3.733804 6.39997 3.333754 15.19992 4.000505 21.19989 1.600202l6.39996-2.533653c6.26663-2.266952 20.79988-10.134611 24.79986-13.335015 10.39994-8.134359 19.46656-18.535671 23.06654-26.003279 1.33333-2.933704 3.06665-6.400808 3.59998-7.600959 1.59999-3.200404 1.46666-9.06781-.13333-9.06781-.66667 0-1.33333-1.066802-1.33333-2.400303 0-2.667003-5.86663-9.467861-11.0666-12.934965-7.19996-4.667255-18.26657-4.800605-40.26645-.533401-4.39997.800101-9.46661 1.466852-11.33327 1.466852-5.46663 0-15.99991-1.866902-15.99991-2.800353 0-.400051-1.99999-1.733552-4.26664-2.667003-5.19997-2.266953-16.79991-13.868416-19.73322-19.602472-1.06666-2.133603-2.26666-4.133855-2.66665-4.533906-1.73333-1.733552-7.99996-14.6685164-7.99996-16.5354185 0-1.2001513-.53333-2.1336024-1.33333-2.1336024-.66666 0-1.33332-.9334511-1.33332-2.0002523 0-1.733552-2.66665-8.6677599-5.46664-14.2684663-.66666-1.3335015-1.19999-3.6004541-1.19999-5.0673057 0-1.4668517-.53333-2.6670031-1.19999-2.6670031-.66667 0-1.46666-1.3335015-1.86666-3.0670535-1.59999-6.134107-4.26664-12.9349647-5.19997-12.9349647-.66666 0-1.06666-1.2001514-1.06666-2.667003 0-1.4668517-.4-2.6670031-1.06666-2.6670031-.53333 0-1.73333-1.6002018-2.53332-3.7338042-3.46665-7.6009587-11.33327-16.2687186-18.3999-19.8691727-11.99993-6.134107-16.13324-6.5341574-31.99982-3.0670535l-10.26661 2.2669526c-2.13332.4000505-3.73331 1.2001514-3.73331 1.8669021 0 .6667508-1.46666 1.2001514-3.33332 1.2001514-1.86665 0-3.33331.5334006-3.33331 1.3335015 0 .6667508-.93333 1.3335015-1.99999 1.3335015s-3.19998.5334006-4.66664 1.3335016c-1.80404.8354592-3.5826 1.7248603-5.3333 2.667003-1.46666.6667508-4.13332 1.3335015-5.99997 1.3335015-1.86666 0-3.33332.5334006-3.33332 1.3335015 0 .6667508-1.73332 1.3335016-3.86664 1.3335016-2.26666 0-4.39998.5334006-4.79997 1.3335015-.4.6667507-2.79999 1.3335015-5.33331 1.3335015s-4.9333.5334006-5.3333 1.3335015c-.53333.8001009-7.33329 1.3335015-16.13324 1.3335015-9.19995 0-15.19992-.5334006-15.19992-1.3335015s-2.13332-1.3335015-4.66664-1.3335015-4.66664-.6667508-4.66664-1.3335015c0-.8001009-1.46666-1.3335015-3.33332-1.3335015-1.86665 0-3.33331-.6667508-3.33331-1.3335016 0-.8001009-1.06666-1.3335015-2.39999-1.3335015-1.33332 0-3.59998-1.0668012-5.06664-2.4003027-1.33332-1.2001514-3.99997-3.0670535-5.86663-4.0005046-1.86666-.933451-7.86662-5.8674067-13.33326-11.0680626-15.46658-14.53516656-16.7999-15.46861762-24.53319-17.73557021-7.99996-2.40030273-10.79994-2.53365288-14.79992-.80010091z"/><path d="m2560.78674 183.859686c-.4.666751-1.99999 1.333502-3.46665 1.333502-1.33332 0-2.53332.533401-2.53332 1.333501 0 .666751-2.13332 1.333502-4.66664 1.333502s-4.66664.533401-4.66664 1.333501c0 .666751-2.13332 1.333502-4.66664 1.333502s-4.66664.533401-4.66664 1.333502c0 .66675-1.46666 1.333501-3.19998 1.333501-1.86666 0-3.73332.533401-4.13331 1.333502-.4.66675-2.26666 1.333501-3.99998 1.333501s-3.59998.533401-3.99998 1.333502c-.4.66675-1.86665 1.333501-3.19998 1.333501s-5.7333 1.200151-9.59995 2.800353l-9.86661 3.867155c-2.39998.933451-11.73327 4.933955-18.93323 8.401059-1.73332.800101-3.06665 1.866902-3.06665 2.533653 0 .533401-.93332 1.066801-1.99998 1.066801-3.33332 0-13.99993 11.868164-13.99993 15.335268 0 1.733552 1.46666 4.667255 3.33332 6.534157 1.86665 1.866902 3.33331 3.600454 3.33331 4.000505 0 .2667 2.66666 3.333754 5.99997 6.534157 7.99996 8.13436 7.86662 10.934713-.8 18.802372-7.46662 6.667507-17.86656 14.135116-19.99988 14.135116-.66667 0-1.2.5334-1.2 1.200151s-2.13332 2.000253-4.66664 2.933704-4.66664 2.266952-4.66664 2.800353c0 .5334-1.46666 1.066801-3.33331 1.066801-1.86666 0-3.33332.533401-3.33332 1.333501 0 .666751-1.73332 1.333502-3.86664 1.333502-2.26666 0-4.39998.533401-4.79998 1.333502-1.19999 1.866902-18.39989 1.600201-22.26654-.400051-13.73326-7.200908-16.66657-16.135368-14.26659-44.405601 1.33333-14.401816 1.2-18.13562-.26666-21.336024-2.66665-5.467356-9.46661-8.401059-19.86656-8.53441-4.79997 0-11.59993-.933451-15.33324-2.133602-7.19996-2.133602-15.06659-1.733552-22.39988 1.466852-4.53331 2.000252-8.93328 6.267457-8.93328 8.93446 0 2.133602 14.39992 15.735318 16.53324 15.735318.93333 0 2.39999.800101 3.19998 1.600202 1.59999 1.600201 9.59995 6.134107 29.33317 16.535418 14.26659 7.600959 6.26663 12.401565-21.06655 12.668265-7.73329.13335-19.99989.5334-27.33318 1.066801-14.26659 1.066801-41.19977-.533401-44.93308-2.667003-1.33333-.666751-3.86665-1.200151-5.59997-1.200151-1.86666 0-3.73331-.666751-4.13331-1.333502-.4-.800101-2.53332-1.333501-4.66664-1.333501s-4.13331-.533401-4.53331-1.200152c-.4-.66675-3.06665-1.466851-5.7333-1.866902-11.4666-1.733552-13.59993-2.667003-20.66655-9.467861-3.86665-3.867154-9.06662-9.46786-11.33327-12.401564-6.9333-8.66776-14.13326-15.068567-17.06657-15.201917-21.19989-.933451-41.33311 1.600202-48.2664 6.134107-4.79997 3.200404-3.59998 13.735066 2.26665 19.335772 1.86666 1.866902 3.99998 6.934208 3.99998 9.734561 0 2.667003-1.46666 3.733804-8.93328 6.667508-5.06664 2.000252-13.86659 6.400807-19.73323 9.867911-5.99996 3.600454-12.39993 7.200908-14.39992 8.267709-1.99998 1.066802-3.59998 2.400303-3.59998 3.067054 0 .5334-.93332 1.066801-1.99998 1.066801s-1.99999.533401-1.99999 1.333502c0 .66675-1.2 1.333501-2.66665 1.333501-1.46666 0-2.66666.533401-2.66666 1.200151 0 .533401-2.66665 2.533653-5.99996 4.267205-3.33332 1.733552-5.99997 3.600454-5.99997 4.133855 0 .666751-.93333 1.066801-1.99999 1.066801s-1.99999.533401-1.99999 1.333502c0 .66675-1.19999 1.333501-2.66665 1.333501s-2.66665.533401-2.66665 1.333502c0 .666751-.93333 1.333501-1.99999 1.333501s-1.99999.533401-1.99999 1.333502c0 .666751-1.19999 1.333501-2.66665 1.333501s-2.66665.533401-2.66665 1.333502c0 .666751-.93333 1.333501-1.99999 1.333501s-1.99999.533401-1.99999 1.333502c0 .666751-1.19999 1.333501-2.53332 1.333501-1.46666 0-2.79998.400051-3.06665 1.066802-.13333.5334-4.53331 2.933703-9.73328 5.467356-12.39993 6.000757-13.19992 6.267457-24.1332 9.467861-10.6666 2.933703-31.59982 3.733804-39.33311 1.200151-12.13327-3.867154-25.19986-13.068315-25.19986-17.86892 0-2.400303 3.06665-6.000757 5.19997-6.000757.8 0 1.46666-.666751 1.46666-1.333502 0-.800101.93333-1.333501 1.99999-1.333501 1.19999 0 3.33331-1.200152 4.93331-2.667003 1.59999-1.466852 3.99997-2.667003 5.3333-2.667003 1.33332 0 2.39999-.666751 2.39999-1.333502 0-.800101 4.66664-1.333501 11.33327-1.333501 7.19996 0 11.33327.5334 11.33327 1.466851 0 1.466852 12.53326.933451 20.93321-.800101 11.19994-2.400302 4.53331-11.334763-14.53325-19.202421-2.13332-.800101-5.3333-2.133603-7.33329-2.933704-7.3333-3.067053-9.19995-3.733804-14.39992-5.334006-2.93332-.933451-5.86664-2.266952-6.66663-2.800353-.66666-.533401-2.53332-1.066801-4.26664-1.066801-1.73333 0-4.13331-.533401-5.46664-1.200152-2.13332-1.200151-12.2666-4.533905-21.19988-6.934208l-8.66662-2.400302c-10.26661-2.933704-26.13319-7.067558-31.06649-8.13436l-17.9999-3.867154c-27.99985-6.134107-35.73314-7.200908-51.33305-7.200908-22.26654 0-35.33314 4.000504-72.26626 21.869425-9.06662 4.267205-16.93324 7.867659-17.73324 7.867659-.66666 0-1.33332.5334-1.33332 1.333501 0 .666751-.93333 1.333502-1.99999 1.333502s-4.93331 1.733552-8.66662 4.000504c-3.73331 2.133603-7.59996 4.000505-8.66662 4.000505-.93333 0-1.99999.40005-2.26665.933451-.53333 1.466852-11.99994 7.067558-13.99992 7.067558-.93333 0-1.73333.533401-1.73333 1.066801 0 .666751-2.13332 1.866902-4.66664 2.933704-2.53332 1.066801-4.66664 2.266952-4.66664 2.933703 0 .5334-1.19999 1.066801-2.66665 1.066801s-2.66665.533401-2.66665 1.333502c0 .66675-.93333 1.333501-1.99999 1.333501s-1.99999.533401-1.99999 1.333502c0 .66675-1.19999 1.333501-2.66665 1.333501s-2.66665.533401-2.66665 1.333502c0 .66675-.93333 1.333501-1.99999 1.333501s-1.99999.533401-1.99999 1.333502c0 .66675-.93333 1.333501-1.99999 1.333501s-1.99999.533401-1.99999 1.333502c0 .666751-.93333 1.333501-1.99999 1.333501-1.73332 0-3.99998 1.466852-9.19995 6.000757-.79999.666751-3.06665 2.133603-4.9333 3.067054-1.86666 1.066801-5.19997 3.333753-7.3333 5.067305-10.2666 8.53441-17.1999 14.801867-19.46655 17.20217-8.39996 9.06781-13.33326 15.068567-14.79992 18.268971-.8 2.133602-1.99999 3.733804-2.53332 3.733804-.66666 0-1.06666 1.200151-1.06666 2.533653 0 1.466852-.53333 2.933703-1.06666 3.333754-.66666.40005-1.99999 4.933955-2.93332 10.267961-1.46666 7.467609-1.46666 10.668013-.26666 15.335268.93332 3.200404 1.59999 7.067558 1.59999 8.53441 0 1.466851.66666 2.667003 1.33332 2.667003.8 0 1.33333 1.200151 1.33333 2.667003 0 1.466851.53333 2.667003 1.19999 2.667003.66667 0 1.46666 1.200151 1.86666 2.533653.79999 3.200403 8.53328 8.134359 12.66659 8.134359 1.6 0 2.93332.533401 2.93332 1.333501 0 .666751 1.73333 1.333502 3.86665 1.333502 2.26665 0 4.39997.533401 4.79997 1.333502.4.66675 1.99999 1.333501 3.46665 1.333501 1.33332 0 2.53332.533401 2.53332 1.333502 0 .66675.93332 1.333501 1.99999 1.333501 1.06666 0 1.99998.533401 1.99998 1.333502 0 .66675 1.46666 1.333501 3.33332 1.333501s3.33331.533401 3.33331 1.333502c0 .66675.93333 1.333501 1.99999 1.333501 1.99999 0 3.33332.533401 9.59995 3.733804 1.73332.933451 4.26664 1.600202 5.59997 1.600202 1.46666 0 3.06665.533401 3.46665 1.333502.39999.666751 2.26665 1.333501 4.13331 1.333501 1.73332 0 3.19998.533401 3.19998 1.333502 0 .666751 1.99999 1.333501 4.53331 1.333501 2.53331 0 5.06663.533401 5.46663 1.333502.4.666751 3.46665 1.333501 6.66663 1.333501s6.26663.533401 6.66663 1.333502c1.19999 2.000252 25.73319 1.600202 31.73316-.400051 6.39996-2.266952 10.39994-5.734056 13.59992-12.001513 1.46666-2.667003 3.06665-4.933956 3.46665-4.933956 1.06666 0 1.99999-6.267457 3.73331-24.003027 2.53332-24.136378 4.79997-40.005046 5.7333-40.005046.53333 0 1.06666-1.466852 1.06666-3.333754 0-3.200403 4.13331-8.66776 6.39997-8.66776 1.99999 0 9.19995-4.000504 10.53327-5.734056.66666-.800101 2.13332-4.267205 3.06665-7.600959 2.53332-8.401059 5.06664-13.468365 9.06662-17.73557 3.06665-3.200404 4.39997-3.600454 12.39993-3.600454 4.9333 0 9.46661.533401 9.86661 1.333501.4.666751 3.19998 1.333502 5.99997 1.333502 2.79998 0 5.59996-.666751 5.99996-1.333502.4-.8001 3.33332-1.333501 6.5333-1.333501 3.06665 0 6.26663-.666751 7.06663-1.466852 1.19999-1.200151 1.86665-.66675 2.53332 2.000253.39999 1.866902 1.33332 3.467104 1.99998 3.467104.66667 0 1.2 2.400302 1.2 5.334006 0 2.933703-.53333 5.334006-1.33333 5.334006-.66666 0-1.33332 1.066801-1.33332 2.400302 0 2.667003-4.93331 6.800858-11.8666 9.601211-8.13329 3.333754-13.19993 6.934208-14.79992 10.534662l-2.66665 5.467357c-1.59999 3.333753 2.93331 9.601211 16.93324 23.602976 7.46662 7.600959 8.53328 8.26771 12.66659 7.734309 8.26662-1.333501 19.06656-3.733804 25.59986-5.467356 8.93328-2.533653 11.8666-2.400303 15.46658.800101 2.93332 2.533653 3.06665 3.200404 1.59999 7.200908-.93333 2.400303-1.59999 7.067558-1.59999 10.534662 0 5.600707-2.66665 13.601716-5.99997 18.002271-3.86664 5.067306-23.7332 24.269727-27.19985 26.40333-2.26665 1.333501-4.13331 2.933703-4.13331 3.467104 0 .5334-1.59999 1.866902-3.59998 2.933703-2.13332 1.066801-5.46663 3.467104-7.73329 5.334006-2.13332 1.866902-5.59997 4.133855-7.59995 4.933956-1.99999.800101-3.73332 2.000252-3.73332 2.400303 0 .5334-2.13332 1.733552-4.66664 2.800353s-4.66664 2.266952-4.66664 2.933703c0 .533401-.93333 1.066801-1.99999 1.066801s-3.86664 1.066802-6.26663 2.400303c-13.33326 7.067558-24.79986 8.53441-72.39959 8.93446-26.13319.13335-44.53309.800101-49.99972 1.866902l-15.99992 3.067054c-26.26652 4.800605-30.13316 5.734056-56.66635 13.201665-17.33323 4.800605-31.59982 9.734561-47.99973 16.535419-13.19992 5.467356-42.26643 19.335772-43.33309 20.669273-.4.533401-2.66665 1.733552-4.9333 2.800353-2.39999 1.066802-4.39998 2.133603-4.39998 2.667004 0 .40005-2.13332 1.466851-4.66664 2.533652-2.53332 1.066802-4.66664 2.266953-4.66664 2.933704 0 .5334-.8 1.066801-1.73333 1.066801-.93332 0-2.53331 1.200151-3.59998 2.667003-1.06666 1.466852-2.93331 2.667003-4.26664 2.667003-1.33332 0-2.39998.533401-2.39998 1.333502 0 .66675-.66667 1.333501-1.46666 1.333501-3.33332 0-5.7333 4.533905-5.46664 10.401312.13333 3.333754.66666 6.400807 1.19999 6.800858.66667.40005 2.26666 2.800353 3.59998 5.334006 2.53332 4.533905 3.59998 6.000757 10.26661 14.001766 5.86664 6.934208 10.53328 14.668516 10.53328 17.068819 0 1.200152-1.46666 3.733804-3.33332 5.600707-1.86665 1.866902-3.33331 3.867154-3.33331 4.667255 0 .666751-.8 1.600202-1.59999 2.000252-1.33333.666751-1.33333.933451 0 1.600202.79999.40005 1.59999 1.600202 1.59999 2.667003s.66666 1.866902 1.33332 1.866902c2.66666 0 1.33333 7.067558-2.13332 10.134612-6.93329 6.534157-14.66658 3.333754-23.19987-9.201161-3.59998-5.334006-6.66663-7.200908-7.99995-4.933955-.53333.933451-1.33333 6.667507-1.73333 12.801614-.39999 6.134107-1.19999 11.868164-1.59999 12.534914-1.73332 2.667004-8.26662 1.466852-10.79994-2.133602-1.33332-1.866902-3.33331-4.267205-4.13331-5.200656-.93333-1.066801-1.73332-2.266952-1.73332-2.800353 0-2.800353-5.46664-4.400555-15.46658-4.533905-11.19994 0-15.19992-1.200152-32.93315-10.134612-3.59998-1.733552-7.19996-3.200403-8.13329-3.200403-2.13332 0-7.46662 5.600706-7.46662 7.734308 0 .933451-.53333 1.600202-1.2 1.600202-.66666 0-1.86665 1.733552-2.79998 4.000505-3.86665 9.33451-7.33329 10.801362-17.33324 7.334258-9.59994-3.333754-15.99991-1.866902-15.99991 3.867155 0 1.066801-.53333 2.400302-1.33332 2.800353-.8.40005-1.33333 6.934208-1.33333 14.668516 0 7.734309.53333 14.268467 1.33333 14.668517.79999.400051 1.33332 2.000252 1.33332 3.467104 0 2.667003 4.53331 3.600454 5.99997 1.200151.4-.8001 2.93331-1.333501 5.46663-1.333501 4.13331 0 4.53331.2667 4.53331 4.133855 0 2.266952-.93333 4.933955-1.99999 6.000756-1.06666 1.200152-1.99999 3.200404-1.99999 4.667256 0 1.333501-.53333 2.533653-1.33332 2.533653-2.53332 0-1.33333 3.333754 2.26665 6.000757 1.99999 1.466851 4.79998 3.867154 6.26663 5.467356 4.79998 4.667255 22.39988 15.868668 33.19982 21.069324 10.53327 5.200656 15.19991 5.600706 22.39987 2.000252 1.46666-.666751 3.73332-1.866902 5.19997-2.533653 5.19998-2.667003 7.86663-.933451 16.66658 10.134612 3.33331 4.267205 4.79997 13.868416 1.99999 13.868416-.66667 0-1.33333.933451-1.33333 2.000252 0 2.800353-21.73321 24.136377-30.2665 29.603734-3.73331 2.400302-7.33329 5.200655-10.26661 7.734308-.79999.800101-5.06663 4.000505-9.46661 7.067558-11.59994 8.13436-13.73326 9.734562-17.5999 13.068315-1.86666 1.600202-5.06664 3.733805-6.9333 4.800606-1.86665.933451-4.39997 2.800353-5.59996 4.000504-1.2 1.333502-2.53332 2.400303-3.06665 2.400303-1.33333 0-14.13326 12.401564-14.13326 13.735066 0 .66675-1.46666 2.400302-3.33331 3.867154-1.86666 1.466852-3.33332 3.200404-3.33332 3.867155 0 .66675-1.19999 2.667003-2.66665 4.267204-5.7333 6.134107-9.33328 10.934713-9.33328 12.534915 0 .800101-.4 1.733552-.93333 2.000252-.66666.13335-2.79998 3.067053-5.06664 6.400807-2.13332 3.333754-4.39997 6.267457-4.79997 6.667508-.4.40005-1.33333 1.600202-1.99999 2.800353-3.46665 6.134107-15.33325 17.33552-32.26649 30.270485-7.73329 5.867406-14.79991 13.468365-18.53323 19.869172-3.19998 5.600707-5.7333 19.069072-5.7333 30.803885 0 6.667508-.53333 12.534915-1.33332 12.934965-.66667.400051-1.33333 5.600706-1.33333 11.468113 0 6.134105-.53333 10.534665-1.33333 10.534665-.66666 0-1.33332 1.46685-1.33332 3.33375 0 3.06705-2.66665 12.53492-5.19997 18.66902-.66666 1.46685-2.79999 8.00101-4.79998 14.66852-1.86665 6.53416-3.99997 13.20166-4.66664 14.66852-.66666 1.46685-1.46665 4.40055-1.86665 6.6675-.4 2.13361-1.2 6.66751-1.99999 10.00126-4.39998 20.40258-4.66664 24.93648-2.13332 33.60424 1.33332 4.66726 2.93331 8.93446 3.59998 9.73456.53333.66675 1.06666 2.53366 1.06666 4.26721s.53333 4.13385 1.19999 5.46736c.66666 1.20015 2.26666 4.93395 3.46665 8.2677 1.19999 3.33376 2.79998 7.06756 3.46665 8.26771.66666 1.33351 1.19999 3.60046 1.19999 5.06731s.66666 2.667 1.33333 2.667c.79999 0 1.33332.93345 1.33332 2.00026 0 1.0668 1.46666 5.0673 3.33332 8.93446 1.86665 3.7338 3.33331 7.4676 3.33331 8.001 0 3.20041 9.19995 10.80137 17.33324 14.40182 1.73332.8001 3.59998 1.8669 3.99997 2.4003.4.5334 4.66665 2.93371 9.46662 5.33401 4.79997 2.53365 10.53327 6.00076 12.66659 7.86766l6.5333 5.6007c1.46666 1.20016 4.39998 4.53391 6.5333 7.33426 6.5333 8.80111 16.13324 18.13562 18.53323 18.13562 1.19999 0 2.26665.5334 2.26665 1.06681 0 1.20015 7.86663 4.2672 11.06661 4.2672 1.19999 0 2.26665.5334 2.26665 1.3335 0 .66675 1.46666 1.3335 3.19998 1.3335 1.86666 0 3.73332.5334 4.13331 1.3335.4.66676 2.53332 1.33351 4.66664 1.33351 2.13333 0 4.26665.5334 4.66664 1.3335.4.66675 2.53332 1.3335 4.66665 1.3335 2.13332 0 4.26664.5334 4.66664 1.3335.39999.66675 3.19998 1.3335 6.1333 1.3335 2.79998 0 5.19997.5334 5.19997 1.3335 0 .66675 2.66665 1.33351 5.99996 1.33351 3.33332 0 5.99997.5334 5.99997 1.3335s5.59997 1.3335 13.99992 1.3335c7.73329 0 13.99992-.40005 13.99992-1.0668 0-.5334 1.73333-1.73355 3.73332-2.66701 2.13332-.8001 5.06663-2.80035 6.66662-4.2672 1.6-1.46685 3.33332-2.667 4.13331-2.667.66667 0 1.46666-.40005 1.73333-1.06681.93333-2.1336 12.2666-6.9342 16.53324-6.9342 2.53332 0 4.53331-.66675 4.53331-1.3335 0-.80011 4.66664-1.33351 11.33327-1.33351s11.33327-.5334 11.33327-1.3335 1.73332-1.3335 3.86664-1.3335c2.26666 0 4.39998-.66675 4.79998-1.3335.39999-.8001 1.73332-1.3335 2.79998-1.3335 1.59999 0 6.26663-3.46711 11.99993-9.06781.93333-.8001 2.26666-1.6002 2.93332-1.6002.8 0 1.59999-.5334 1.86666-1.06681.26666-.66675 3.99997-3.7338 8.39995-6.9342 4.39998-3.33376 8.93328-7.06756 10.13328-8.26771 1.19999-1.3335 2.53332-2.40031 3.06665-2.40031s2.26665-1.3335 3.99997-3.06705c1.59999-1.6002 5.06664-4.40055 7.46663-6.26746l5.86663-4.66725c3.99998-3.86716 11.59994-7.46761 13.99992-6.66751 4.13331 1.20015 6.79997 8.13436 6.79997 17.33552 0 7.60096.26666 8.40106 3.33331 9.73456 1.86666.93345 4.39998 1.6002 5.46664 1.6002s2.93331.5334 4.26664 1.20015c3.46665 1.86691 14.79992 6.80086 15.59991 6.80086.4 0 3.19999 1.0668 6.39997 2.53366 12.79993 5.6007 11.59993 5.6007 28.13317 1.20015 13.33326-3.46711 15.99991-3.86716 19.46656-2.40031 5.46664 2.26696 14.66659 11.60147 14.66659 15.06857 0 .93345.53333 2.26695 1.19999 2.9337 2.93332 3.20041 5.46664 16.53542 5.46664 29.20369 0 13.33501 0 13.46836 4.66664 19.33577 2.53332 3.2004 4.66664 6.80086 4.66664 8.13436 0 2.667-3.19999 6.40081-8.93329 10.53466-5.3333 3.60046-5.3333 4.40056-1.06666 10.00126 2.39999 3.20041 3.33332 6.00076 3.33332 10.53466 0 3.33376-.53333 6.53416-1.33333 6.93421-.66666.40005-1.33332 2.00025-1.33332 3.46711 0 4.66725.66666 5.334 27.73317 34.13764 1.6 1.73355 2.93332 3.4671 2.93332 3.86715s1.46666 2.9337 3.33332 5.60071c1.86665 2.667 3.33331 6.26745 3.33331 7.86766 0 1.73355.66666 3.06705 1.33333 3.06705.79999 0 1.33332 7.73431 1.33332 20.66927 0 12.93497.53333 20.66928 1.33333 20.66928.79999 0 1.33332 1.0668 1.33332 2.4003s.93333 3.60045 1.99999 5.0673c1.06666 1.33351 1.99999 3.86716 1.99999 5.46736 0 1.73355.66666 3.06705 1.33333 3.06705.79999 0 1.33332 2.40031 1.33332 5.33401s.66667 5.33401 1.33333 5.33401c.79999 0 1.33333 2.4003 1.33333 5.334 0 2.93371-.53334 5.33401-1.33333 5.33401-.66666 0-1.33333 2.4003-1.33333 5.20065 0 2.93371-.53333 5.73406-1.33332 6.13411-.66667.40005-1.33333 2.1336-1.33333 3.73381 0 1.6002-.93333 4.13385-1.99999 5.46735-1.06666 1.46685-1.99999 4.26721-1.99999 6.40081 0 2.00025-.53333 3.7338-1.33332 3.7338-.8 0-1.33333 6.00076-1.33333 15.33527s.53333 15.33527 1.33333 15.33527c.79999 0 1.33332 2.53365 1.33332 5.6007 0 3.20041.93333 9.33452 1.99999 13.73507 2.26666 9.46786 2.53332 17.86892.66667 22.53618-.66667 2.00025-1.73333 8.26771-2.13333 14.13511-.53333 5.86741-1.46665 10.66801-1.99998 10.66801-1.6 0-1.6 39.3383 0 42.40535 2.13332 4.26721 4.39997 11.60147 5.06663 15.86867.4 2.4003 1.2 4.40056 1.86666 4.40056s1.19999 1.73355 1.19999 4.0005c0 2.1336.53333 4.0005 1.33333 4.0005.66666 0 1.59999 2.13361 2.13332 4.66726.4 2.53365 1.33333 5.06731 1.99999 5.46736s1.19999 2.80035 1.19999 5.334c0 2.53366.53333 4.53391 1.06666 4.53391.93333 0 3.19999 8.53441 5.06664 19.73582.53333 2.4003 1.33333 4.66726 1.99999 5.06731s1.19999 2.80035 1.19999 5.334.66667 4.53391 1.33333 4.53391c.8 0 1.33333 1.3335 1.33333 2.9337.13333 1.73355.93332 4.53391 1.99998 6.40081 1.06667 1.8669 1.86666 4.66725 1.99999 6.26745 0 1.73356.66667 3.06706 1.33333 3.06706.8 0 1.33333 1.0668 1.33333 2.26695 0 2.4003 2.26665 7.60096 11.33327 25.73658l6.53329 12.93497c.8 1.73355 1.86666 3.06705 2.53332 3.06705.53333 0 .93333.93345.93333 2.00025s.66666 2.00025 1.33333 2.00025c.79999 0 1.33332.8001 1.33332 1.73356 0 .93345 1.46666 3.2004 3.33332 5.20065 1.86665 2.00025 3.33331 4.00051 3.33331 4.53391s1.46666 2.26695 3.33332 4.0005c1.86665 1.73355 3.33331 3.4671 3.33331 3.86716 0 .40005 2.79998 3.4671 6.39996 6.80085 24.26654 23.46963 40.93311 32.80414 68.53296 38.5382 11.73326 2.4003 48.26639 2.667 60.26633.5334 11.4666-2.1336 33.86647-9.20116 39.46644-12.40157 4.79997-2.80035 16.79991-11.06806 19.59989-13.46836.8-.66675 3.46665-2.80036 5.86664-4.66726 8.26662-6.26745 28.93317-28.53693 36.53313-39.20494 1.46665-2.1336 3.99997-5.20066 5.7333-6.93421 1.59999-1.73355 2.93331-3.7338 2.93331-4.53391 0-.8001.93333-1.73355 1.99999-2.1336 1.06666-.5334 1.99999-1.8669 1.99999-3.06705s1.19999-3.06705 2.66665-4.13386c1.46666-1.0668 2.66666-2.667 2.66666-3.7338 0-.93345.79999-2.667 1.73332-3.60045 3.86664-4.53391 4.9333-6.00076 4.9333-7.33426 0-.8001.8-2.40031 1.73333-3.33376 4.13331-4.66725 4.9333-6.00075 4.9333-8.00101 0-1.0668.4-2.00025 1.06666-2.00025.53333 0 2.66666-3.4671 4.93331-7.73431 2.13332-4.13385 4.26664-7.86766 4.66664-8.26771.53333-.40005 2.66665-4.0005 4.79997-8.001 2.13333-4.00051 4.26665-7.60096 4.93331-7.73431.53333-.2667.93333-1.60021.93333-2.93371s.4-2.667 1.06666-2.9337c.53333-.2667 2.13332-2.80035 3.59998-5.73406 1.46666-2.9337 2.93332-5.6007 3.33331-6.00075.4-.40005 2.53332-4.26721 4.66664-8.66776 2.13333-4.40056 4.66664-8.80111 5.59997-9.73456.93333-.93346 1.73333-2.13361 1.73333-2.66701s1.46665-2.80035 3.33331-4.93395c7.46663-8.93446 13.59993-15.86867 17.06657-19.46913 1.99999-2.1336 3.59998-4.66725 3.59998-5.8674 0-1.0668.53333-2.00025 1.2-2.00025.66666 0 1.59999-1.73356 2.13332-4.00051.53333-2.1336 1.46666-4.2672 2.13332-4.66725.66666-.53341 1.19999-2.00026 1.19999-3.46711 0-1.3335.66666-2.53365 1.33333-2.53365.79999 0 1.33332-1.46685 1.33332-3.20041 0-1.8669.66667-3.7338 1.33333-4.13385.8-.40005 1.33333-1.73355 1.33333-2.80035s1.46665-4.93396 3.33331-8.80111c1.86666-3.73381 3.33331-8.00101 3.33331-9.33451 0-1.33351.66667-2.40031 1.33333-2.40031.8 0 1.33333-1.20015 1.33333-2.53365 0-1.46685.79999-3.4671 1.73332-4.40055.93333-.93346 5.19997-8.66776 9.46661-17.06882 4.13331-8.40106 9.19995-16.93547 11.06661-18.93573 4.39997-4.5339 10.39994-4.93395 16.66657-1.0668 4.93331 2.93371 10.53328 3.46711 14.79992 1.0668 3.19998-1.73355 6.26663-4.40055 6.26663-5.73405 0-.40005 1.46666-2.80035 3.33332-5.20066 1.86665-2.4003 3.33331-5.334 3.33331-6.53416 0-1.3335.66666-2.26695 1.33333-2.26695.79999 0 1.33332-1.46685 1.33332-3.06705 0-1.73355.4-3.60046.93333-4.00051 1.33333-1.46685 5.7333-14.53516 5.7333-17.20217 0-1.3335.66667-2.4003 1.33333-2.4003.79999 0 1.33332-2.9337 1.33332-6.40081 0-3.4671.53333-6.9342 1.2-7.7343.66666-.66676 1.59999-6.80086 2.13332-13.46837.79999-12.26821.79999-12.40156-2.53332-13.86842-2.53332-1.20015-7.46663-1.20015-20.39989.13335-22.5332 2.26696-38.53311 3.06706-43.59975 2.13361-4.26665-.8001-8.79995-6.66751-8.79995-11.46812 0-1.3335-.4-2.667-1.06666-2.9337-1.73333-.8001-5.59997-18.13562-5.59997-25.73658 0-8.00101 3.86664-24.66978 5.59997-24.66978.53333 0 1.06666-1.20015 1.06666-2.667 0-1.6002 2.13332-6.13411 4.66664-10.13461 2.53332-4.00051 4.66664-7.60096 4.66664-8.00101 0-.8001 1.99999-3.2004 6.39996-7.86766 1.59999-1.73355 2.93332-3.86715 2.93332-4.8006 0-.80011 1.46666-2.93371 3.33331-4.66726 1.86666-1.73355 3.33332-3.60045 3.33332-4.13385 0-.66676 1.46666-2.26696 3.33331-3.60046 1.86666-1.3335 3.33332-3.06705 3.33332-3.7338s1.33332-2.53366 3.06665-4.26721c4.39997-4.66725 8.93328-10.00126 8.93328-10.93471 0-.40005 1.59999-2.9337 3.73331-5.60071 1.99999-2.667 3.99998-5.46735 4.53331-6.26745l4.39998-5.46736c1.86665-2.4003 3.33331-4.80061 3.33331-5.60071s.4-1.6002 1.06666-1.8669c.53333-.2667 3.33332-3.4671 6.26663-7.06756 6.9333-8.66776 17.33324-18.66902 23.99987-23.06957 5.3333-3.60046 9.06662-6.40081 11.8666-9.06781.8-.66675 3.99998-2.80036 7.19996-4.53391 3.06665-1.73355 5.59997-3.60045 5.59997-4.2672 0-.5334.66666-1.0668 1.33332-1.0668.8 0 2.79999-1.33351 4.53331-2.93371 1.73333-1.73355 6.26663-5.73405 10.13328-9.06781 3.86664-3.33375 9.46661-9.06781 12.2666-12.66826 7.99995-10.26796 12.13326-15.20192 15.46658-18.66902 1.59999-1.73356 2.93331-3.73381 2.93331-4.40056s1.46666-2.80035 3.33332-4.8006c1.86666-2.00026 3.33331-3.86716 3.33331-4.26721s.66667-1.3335 1.33333-2.26695c6.26663-7.46761 7.99996-9.86791 7.99996-11.33476 0-.80011.53333-1.60021 1.19999-1.60021s1.59999-1.0668 1.99999-2.4003c.53333-1.3335 1.86665-3.60045 3.19998-5.06731 2.39999-2.80035 4.53331-6.26745 8.13329-13.20166 1.19999-2.1336 2.39998-4.26721 2.79998-4.66726 1.73333-1.46685 7.99996-16.26871 7.99996-18.66902 0-1.46685.66666-2.667 1.33332-2.667.8 0 1.33333-1.3335 1.33333-3.06705 0-6.00076-8.66662-7.60096-22.66654-4.26721-1.86666.5334-5.99997 1.46685-9.33328 2.26695-3.33332.80011-9.33328 2.40031-13.33326 3.73381l-17.33324 5.334-13.33326 4.00051c-17.06657 5.20066-29.59983 7.33426-42.66643 7.20091-10.93327 0-13.46659-.5334-18.26656-3.33376-6.93329-4.0005-13.06659-8.66776-18.53323-14.26846-2.53332-2.26696-4.93331-4.26721-5.46664-4.26721s-2.53332-1.8669-4.26664-4.13385c-4.79997-6.00076-10.39994-11.86817-11.33327-11.86817-.53333 0-2.26665-1.3335-3.99998-3.06705-1.73332-1.6002-5.7333-5.06731-8.79995-7.60096s-7.46662-6.40081-9.73328-8.40106c-2.26665-2.1336-5.86663-4.66725-8.13328-5.8674-2.26666-1.20016-4.39998-2.53366-4.79998-2.93371-1.19999-1.6002-13.46659-9.46786-14.79991-9.46786-.66667 0-1.2-.5334-1.2-1.0668 0-.66675-2.79998-2.80035-6.26663-4.66725-3.59998-2.00026-8.26662-5.20066-10.53327-7.20091-2.26666-2.13361-5.73331-4.93396-7.73329-6.40081-1.99999-1.46685-6.9333-5.60071-10.93328-9.20116-3.99997-3.60046-8.93328-7.46761-10.93327-8.53441-8.39995-4.53391-13.46659-6.80086-22.26654-9.60121-5.06664-1.73355-9.86661-3.60046-10.66661-4.26721-.66666-.5334-2.53332-1.0668-4.26664-1.0668s-4.13331-.5334-5.46664-1.20015c-1.19999-.5334-8.53328-3.06705-16.26657-5.60071-15.46658-4.93395-26.66652-10.13461-32.26649-15.06856-3.46665-2.933706-3.73331-3.867157-3.73331-13.201668 0-5.600706.66666-10.534662 1.33332-10.934712.8-.400051 1.33333-2.133603 1.33333-3.867155 0-1.600201.93333-4.133854 1.99999-5.600706 1.06666-1.333501 1.99999-3.600454 1.99999-4.933956 0-1.200151.66666-2.266952 1.33332-2.266952.8 0 1.33333-.933451 1.33333-2.133603 0-2.000252 6.26663-14.801866 7.99995-16.535418.4-.400051 1.86666-2.933704 3.33332-5.734057 1.46666-2.667003 3.06665-4.933956 3.59998-4.933956.66666 0 1.06666-.8001 1.06666-1.733552 0-.8001 1.33333-3.200403 3.06665-5.200655 1.59999-2.000253 5.3333-6.934208 8.26662-10.934713 2.93332-4.133855 5.7333-7.467608 6.26663-7.467608s1.06666-.666751 1.06666-1.333502c0-1.600202 22.26654-24.003027 23.86654-24.003027.53333 0 2.79998-1.466852 4.79997-3.200404 2.13332-1.866902 6.5333-4.533905 9.86661-6.134107l8.39995-4.133855c3.19999-1.600201 19.33323-1.466851 20.39989.133351.4.66675 1.73332 1.333501 2.93332 1.333501 5.46663 0 19.06656 20.135873 19.06656 28.270232 0 1.733552.53333 3.733805 1.06666 4.400555.66666.800101 2.26665 5.200656 3.59998 10.001262 1.33332 4.800605 2.93331 9.20116 3.59998 10.001261.53333.666751 1.06666 2.533653 1.06666 4.133855s.4 3.200403 1.06666 3.467104c1.33332.5334 8.26662 14.268466 8.26662 16.535419 0 1.066801.66666 1.866902 1.33332 1.866902.8 0 1.33333.933451 1.33333 2.000252 0 1.200151.93333 2.400303 1.99999 2.800353 1.06666.533401 1.99999 1.866902 1.99999 3.200404 0 1.466851.66666 2.933703 1.33332 3.333754.8.40005 1.33333 2.000252 1.33333 3.467104 0 1.333501.53333 2.533652 1.19999 2.533652.66667 0 1.59999 1.466852 1.99999 3.333754.53333 1.866902 1.46666 3.333754 2.13332 3.333754.8 0 1.33333 1.200151 1.33333 2.533653 0 1.466852.66666 3.067053 1.33333 3.467104.79999.40005 1.33332 2.000252 1.33332 3.467104s.93333 3.600454 1.99999 4.667255c1.06666 1.200152 1.99999 3.467104 1.99999 5.200656s.66666 3.600454 1.33332 4.000505c.8.40005 1.33333 2.533653 1.33333 4.533905 0 2.000255.53333 4.133855 1.06666 4.800605.66666.8001 2.26666 5.20066 3.46665 10.00126 1.33332 4.80061 2.93332 9.73456 3.59998 10.93471.66666 1.33351 1.19999 3.60046 1.19999 5.06731s.53333 3.7338 1.2 5.06731c.66666 1.20015 2.26665 4.66725 3.46664 7.60095 2.93332 6.93421 5.19997 11.86817 5.99997 12.66827.4.40005 1.86666 2.80035 3.19998 5.334 4.26664 7.60096 18.3999 20.13588 25.86652 22.93623 2.26666.93345 4.26665 2.1336 4.26665 2.667s.79999 1.06681 1.86665 1.06681c1.59999 0 5.86664 1.8669 15.73325 6.80085 1.33332.66675 3.59998 1.20015 4.9333 1.20015 1.46666 0 3.06665.53341 3.46665 1.33351.4.66675 2.26666 1.3335 4.13331 1.3335 1.73333 0 3.19998.5334 3.19998 1.3335 0 .66675 2.13333 1.3335 4.66664 1.3335 2.53332 0 4.66664.5334 4.66664 1.3335 0 .66675 1.99999 1.3335 4.53331 1.3335s5.06664.5334 5.46664 1.33351c1.06666 1.73355 32.26649 1.73355 33.33315 0 .39999-.80011 2.53332-1.33351 4.79997-1.33351 2.13332 0 3.86664-.66675 3.86664-1.3335 0-.8001 1.46666-1.3335 3.33332-1.3335s3.33331-.66675 3.33331-1.3335c0-.8001 1.46666-1.3335 3.33332-1.3335 1.86665 0 3.33331-.66675 3.33331-1.3335 0-.8001 1.2-1.33351 2.66666-1.33351 1.46665 0 2.66665-.66675 2.66665-1.3335 0-.8001.93333-1.3335 1.99999-1.3335s1.99998-.66675 1.99998-1.3335c0-.8001.93333-1.3335 1.99999-1.3335s4.79998-1.6002 8.26662-3.73381c3.46665-2.00025 7.99996-4.5339 9.99995-5.46735 1.99999-1.0668 4.79997-2.80036 5.99996-4.00051 1.33333-1.20015 3.99998-2.9337 5.86664-3.86715 1.86665-1.0668 5.19997-3.33375 7.33329-5.20066 2.13332-1.8669 6.1333-5.20065 8.93328-7.46761 10.79994-8.80111 31.19983-30.00378 38.93312-40.27174 2.13332-2.9337 4.39998-5.60071 4.93331-5.73406.53333-.2667 1.06666-1.20015 1.06666-2.00025 0-.93345 1.86665-3.7338 4.13331-6.26746 2.26665-2.53365 4.66664-5.867404 5.3333-7.334256 1.59999-3.467104 3.99998-7.200908 6.9333-10.534662 1.19999-1.466851 2.26665-3.467104 2.26665-4.400555s.53333-1.733552 1.19999-1.733552c.66667 0 1.46666-1.066801 1.86666-2.400303.4-1.200151 2.66665-5.467356 4.79997-9.33451 5.7333-9.734561 5.46664-15.335268-.66666-22.669526-2.66665-3.067053-7.99996-7.867659-11.73327-10.668012-3.73331-2.667003-7.33329-5.334006-8.13329-6.000757-.66666-.533401-5.7333-4.000505-10.93327-7.734309-6.1333-4.267205-9.99994-7.867659-10.53327-10.001261-.4-1.733552-1.33333-3.200404-1.99999-3.200404-.66667 0-1.2-1.866902-1.2-4.000504 0-2.266953-.53333-4.000505-1.33332-4.000505-.66666 0-1.33333-2.800353-1.33333-6.400807 0-5.600707.4-6.534158 4.13331-8.66776 2.26666-1.200152 5.7333-2.266953 7.73329-2.266953s4.26665-.66675 4.93331-1.333501c.93333-.933451 10.79994-1.200152 28.66651-.800101 29.33316.666751 41.7331 1.600202 45.86641 3.467104 1.46665.666751 5.06663 1.466851 7.99995 1.866902 8.53329 1.066801 14.39992 2.266953 17.33324 3.467104 1.46666.5334 7.19996 2.400303 12.66659 4.000504 26.26652 7.600959 50.26639 19.869173 69.73295 35.871191 12.93326 10.668012 24.93319 26.26998 24.93319 32.404087 0 2.000253 6.39997 7.734309 8.53329 7.734309 1.06666 0 2.39998.533401 2.79998 1.333502 1.06666 1.733552 20.26656 1.733552 21.33322 0 .39999-.800101 1.99998-1.333502 3.46664-1.333502 1.33333 0 2.53332-.666751 2.53332-1.333501 0-.800101 1.2-1.333502 2.53332-1.333502 1.46666 0 3.06665-.533401 3.46665-1.333502 1.19999-1.866902 10.39994-1.733551 12.39993.266701.93333.933451 1.59999 4.267205 1.59999 7.600958 0 5.200656-.93333 7.200909-7.19996 15.335268-3.99998 5.200656-8.79995 10.934715-10.66661 12.668265-1.86665 1.8669-3.46664 4.0005-3.46664 4.93396 0 .93345-.8 1.8669-1.59999 2.26695-2.13333.66675-1.99999 17.86892.13333 20.00252.79999.8001 1.46666 3.2004 1.46666 5.20066 0 2.00025.66666 3.7338 1.33332 3.7338.8 0 1.33333.93345 1.33333 2.00025s1.46666 5.06731 3.33331 8.93446c1.86666 3.73381 3.33332 7.46761 3.33332 8.00101 0 2.26695 14.93325 18.40232 16.93324 18.40232.79999 0 1.73332.66675 1.99999 1.6002.39999 1.06681 3.99997 1.46686 11.8666 1.20016 19.59989-.66675 20.39988-.66675 20.93321.93345.26667.8001 2.13332 3.4671 4.26665 5.8674 2.26665 2.40031 3.99997 5.46736 3.99997 6.66751s.66667 2.667 1.33333 3.06706c.79999.40005 1.33332 2.26695 1.33332 4.13385 0 1.73355.53334 3.2004 1.2 3.2004.53333 0 1.46666 2.26696 1.86665 4.93396.53333 2.80035 1.86666 8.40106 3.06665 12.40156 1.2 4.00051 2.53332 9.06781 2.79999 11.33477.4 2.1336 1.19999 4.2672 1.59999 4.66725s1.99999 2.9337 3.46665 5.73406c2.53332 5.20065 4.39997 7.20091 12.39993 13.60171 3.73331 3.20041 4.26664 4.40056 4.26664 10.00126 0 3.60046-.53333 6.93421-1.33333 7.33426-.66666.40005-1.33332 3.33376-1.33332 6.53416 0 3.06705-.53333 6.13411-1.19999 6.93421-1.99999 2.00025-3.33332 21.33602-1.6 22.40282 1.6 1.06681 16.26658-13.06831 24.79987-23.86967 2.93331-3.73381 5.59996-6.93421 5.99996-7.33426s2.39999-3.06705 4.66664-6.00076c2.13332-2.9337 5.06664-6.53416 6.39997-8.00101 1.33332-1.46685 3.46664-4.2672 4.66664-6.4008 1.19999-2.00026 2.66665-3.60046 3.19998-3.60046s1.06666-.8001 1.06666-1.73355 1.46666-3.2004 3.33332-5.20066c3.06664-3.33375 3.33331-4.66725 3.33331-15.06856 0-6.26746-.53333-11.33477-1.19999-11.33477-.8 0-1.73333-2.80035-2.13332-6.4008-.4-3.46711-1.33333-7.33426-2.13333-8.53441-.66666-1.33351-1.19999-4.53391-1.19999-7.06756s-.53333-4.66726-1.33333-4.66726c-.66666 0-1.33332-2.4003-1.33332-5.46735 0-5.20066 2.26665-9.20116 5.19997-9.20116.8 0 1.46666-.5334 1.46666-1.06681 0-.66675 2.13332-1.8669 4.66664-2.9337s4.66664-2.26695 4.66664-2.9337c0-.5334 1.19999-1.0668 2.53332-1.0668 1.46666 0 2.79998-.40005 3.06665-1.0668.26666-.5334 2.79998-2.13361 5.7333-3.60046 4.13331-2.00025 5.46664-3.60045 5.7333-6.53416.53333-4.2672-2.39999-15.46861-3.99998-15.46861s-1.33332-3.86716.4-5.86741c.8-1.0668 3.19998-3.7338 5.3333-6.13411 2.13333-2.4003 3.86665-4.66725 3.86665-5.334 0-.5334 1.86666-2.80036 3.99998-5.06731 2.26665-2.4003 3.99997-4.66725 3.99997-5.20065 0-.66676 1.99999-3.20041 4.39998-5.73406s6.1333-7.06756 8.26662-10.00126c2.26665-2.933706 4.53331-5.734059 5.19997-6.26746 1.59999-1.066801-1.19999-6.934208-5.19997-11.334763-5.3333-5.867406-5.99997-7.067558-5.99997-10.668012 0-2.533653 1.2-4.667255 3.46665-6.400807 1.99999-1.466852 5.46664-4.267205 7.73329-6.400808 2.26666-2.000252 8.26662-5.867406 13.19993-8.667759 8.66662-4.800606 9.06661-5.067306 8.13329-8.934461-.8-3.600454-1.86666-19.602472-3.99998-62.00782-.4-7.600959-1.33333-14.668517-1.99999-15.468618-1.33333-1.600202-3.59998-17.86892-4.66664-34.93774-.4-5.200656-1.33333-9.601211-1.99999-9.601211s-1.19999-2.266952-1.19999-5.067305c0-2.667003-.66667-7.067559-1.33333-9.601211-1.33333-4.400555-3.33331-15.868668-4.79997-27.336782-.4-2.933703-1.2-6.534157-1.73333-8.001009-1.73332-4.133854-5.46663-21.069324-5.46663-24.269727 0-1.600202-.53333-3.333754-1.33333-3.733805-.66666-.40005-1.33332-2.933703-1.33332-5.467356s-.53333-5.600706-1.2-6.934208c-1.86665-3.467104-5.46663-16.802119-5.46663-20.002523 0-1.466851-.53333-3.200403-1.33333-3.600454-.66666-.40005-1.33333-2.533653-1.33333-4.800605 0-2.133603-.53333-4.933956-1.19999-6.267457-.66666-1.200152-2.26665-5.867407-3.46665-10.267962-1.33332-4.400555-2.79998-9.06781-3.46664-10.267962-.66667-1.333501-1.2-3.867154-1.2-5.734056s-.53333-3.333754-1.19999-3.333754-1.46666-1.600202-1.86666-3.733804c-1.86665-8.53441-4.26664-16.268719-5.19997-16.268719-.66666 0-1.06666-1.866902-1.06666-4.000504 0-2.266953-.53333-4.000505-1.19999-4.000505s-1.46666-1.333501-1.86666-3.067053c-.4-1.600202-1.86665-6.267458-3.46664-10.267962-1.6-4.000505-2.79999-8.40106-2.79999-9.601211 0-1.333502-.53333-2.400303-1.33332-2.400303-.66667 0-1.33333-1.333501-1.33333-3.067053s-.66666-3.733805-1.59999-4.667256c-1.59999-1.600201-5.06664-10.534662-5.06664-13.335015 0-.933451-.8-2.667003-1.86666-3.600454-.93332-1.066801-2.66665-4.533905-3.59998-7.867659-.93332-3.467104-2.26665-6.134107-2.79998-6.134107s-1.06666-.933451-1.06666-2.000252-1.59999-5.467356-3.59998-9.601211l-7.73329-17.06882-17.73324-37.338042-4.9333-9.601211c-.66666-1.733552-1.73333-3.067054-2.26666-3.067054-.66666 0-1.06666-.8001-1.06666-1.866902 0-2.266952-4.26664-10.668012-5.59996-11.201412-.66667-.266701-1.06667-1.600202-1.06667-3.067054 0-1.333501-.39999-2.533653-1.06666-2.533653-.93332 0-3.33331-4.000504-5.06663-8.401059-.4-1.200152-1.33333-2.266953-1.99999-2.266953-.66667 0-1.2-1.200151-1.2-2.667003s-.53333-2.667003-1.33332-2.667003c-.66667 0-1.33333-1.200151-1.33333-2.667003s-.4-2.667003-1.06666-2.667003c-.53333 0-2.13332-2.266953-3.59998-5.067306-1.46666-2.667003-3.06665-5.200656-3.46665-5.600706-.39999-.400051-1.86665-2.800353-3.19998-5.334006-1.33332-2.533653-2.79998-4.933956-3.19998-5.334006-1.19999-1.066802-6.9333-11.068063-7.73329-13.735066-.4-1.200151-1.19999-2.266953-1.86666-2.266953-.66666 0-1.19999-.66675-1.19999-1.466851s-1.46666-3.333754-3.33332-5.734057c-1.86665-2.400303-3.33331-5.067306-3.33331-5.867407 0-.933451-.53333-1.600201-1.33333-1.600201-.66666 0-1.33332-.666751-1.33332-1.600202 0-.800101-1.46666-3.467104-3.33332-5.867407-1.86665-2.400303-3.33331-4.800605-3.33331-5.200656 0-.800101-2.13332-3.733804-7.99996-10.934712-.79999-.933451-1.33332-2.133603-1.33332-2.667003 0-.933451-1.99999-3.600454-7.99996-10.668012-.66666-.933452-1.33332-2.133603-1.33332-2.667004 0-.933451-1.99999-3.600454-7.99996-10.668012-.66666-.933451-1.33332-2.266952-1.33332-3.067053 0-.666751-.53334-1.333502-1.33333-1.333502-.7141-.051205-1.28213-.619313-1.33333-1.333501 0-.800101-.66666-2.266953-1.46666-3.200404-.79999-1.066801-3.06664-3.733804-5.06663-6.000757l-5.06664-6.000757c-.93333-1.200151-1.73333-2.667003-1.73333-3.467103 0-.666751-.53333-1.333502-1.33332-1.333502-.66666 0-1.33333-.666751-1.33333-1.466852s-.79999-2.133602-1.59999-3.067053c-1.73332-1.733552-3.86664-4.267205-12.79993-16.002018-2.66665-3.600455-6.1333-8.00101-7.59995-9.601211-1.46666-1.600202-4.13331-4.800606-5.99997-7.200909-5.46664-6.934207-11.06661-13.468365-14.93325-17.468869-2.13332-2.133603-3.73331-4.133855-3.73331-4.533906 0-.40005-1.46666-2.133602-3.33332-3.867154-1.86665-1.733552-3.33331-3.467104-3.33331-4.000505 0-.5334-1.33333-2.266952-2.93332-4.000504-1.73332-1.733552-8.79995-9.334511-15.73325-16.802119l-26.93318-28.270233c-7.86662-8.001009-15.59991-16.268718-17.33323-18.535671-1.73333-2.133602-3.73332-3.867154-4.39998-3.867154-.8 0-2.26665-1.200151-3.33331-2.667003-2.13333-2.933703-4.66665-3.467104-5.99997-1.333502zm-807.59549 407.651415c1.99999 2.800353 2.79998 6.534157 3.06665 15.335267.53333 10.134612.93333 12.001514 3.86664 15.068568 3.33332 3.600454 3.33332 3.600454 16.93324 2.800353 24.66653-1.600202 29.73317 1.733552 29.73317 19.069072 0 5.467356.53333 9.46786 1.33332 9.46786.8 0 1.33333 2.400303 1.33333 5.334006 0 2.933704.66666 5.334007 1.33333 5.334007.79999 0 1.33332 1.066801 1.33332 2.533652 0 1.333502.93333 3.200404 1.99999 4.133855s1.99999 2.800353 1.99999 4.133855c0 1.466851.66666 2.533653 1.33333 2.533653.79999 0 1.33332 1.200151 1.33332 2.667003 0 1.466851.4 2.667003 1.06666 2.667003.53333 0 2.13332 2.266952 3.59998 4.933955 3.46665 6.667508 4.13331 7.467609 12.6666 16.535419 4.66664 5.067306 8.39995 7.867659 10.39994 7.867659 1.59999 0 2.93332.533401 2.93332 1.333502 0 .666751 1.46666 1.333501 3.19998 1.333501 1.86666 0 3.73331.533401 4.13331 1.333502.4.666751 2.53332 1.333501 4.79997 1.333501 2.13332 0 3.86665.533401 3.86665 1.333502 0 .666751 2.26665 1.333501 5.06664 1.333501 2.79998 0 5.7333.666751 6.53329 1.466852.66667.666751 4.26665 1.200151 7.86663.933451l6.53329-.40005.93333-8.66776c1.86666-18.935722 3.59998-31.603986 5.06664-36.137891 1.46666-5.334007 6.26663-8.53441 10.93327-7.467609 1.73332.400051 7.33329 1.200151 12.39993 1.733552 10.93327 1.066801 18.13323 4.000505 19.99989 8.134359.66666 1.733552 1.73332 3.067054 2.26665 3.067054.66667 0 1.06667 2.400303 1.06667 5.334006s.66666 5.334006 1.33332 5.334006c.8 0 1.33333 2.266953 1.33333 4.933956.13333 2.800353.93332 7.467608 1.99999 10.401311 1.06666 2.933704 1.99998 7.600959 1.99998 10.267962s.66667 5.334006 1.33333 5.734057c.8.40005 1.33333 2.266952 1.33333 4.133854s.79999 4.267205 1.86665 5.334006c2.93332 2.800354 24.66653 15.201918 26.93319 15.201918 1.06666 0 1.86665.666751 1.86665 1.466851 0 .933452 3.33332 1.200152 9.73328.800101 8.39995-.40005 14.79992-1.866902 35.5998-7.734308 19.46656-5.600707 26.79985-6.267458 31.73316-2.667003 2.26665 1.466851 4.66664 2.800353 5.3333 2.800353.8 0 1.59999.5334 1.86666 1.066801.26666.666751 4.79997 4.000504 10.13327 7.467608l9.59995 6.400808v7.067558c0 4.000504-.53333 7.600958-1.33332 8.001009-2.26666 1.333501-1.46666 8.267709 1.33332 13.335015 2.79999 4.933956 3.73331 15.335268 1.33333 15.335268-.66667 0-1.33333 1.200151-1.33333 2.667003 0 4.400555-14.13325 19.735822-20.93322 22.802876-2.39998.933451-4.39997 2.266952-4.39997 2.800353 0 .666751-1.19999 1.066801-2.53332 1.066801-1.46666 0-3.06665.533401-3.46665 1.333502-.4.66675-1.99999 1.333501-3.46664 1.333501-1.33333 0-2.53332.533401-2.53332 1.333502 0 .66675-1.46666 1.333501-3.33332 1.333501-1.86665 0-3.33331.533401-3.33331 1.333502 0 .66675-.93333 1.333501-1.99999 1.333501s-1.99999-.666751-1.99999-1.333501c0-1.866903-14.13326-1.600202-17.5999.2667-1.59999.933451-4.13331 2.800353-5.59997 4.000504-2.79999 2.533653-10.79994 3.200404-12.13327 1.066802-.39999-.800101-1.99999-1.333502-3.46664-1.333502-1.33333 0-2.53332-.666751-2.53332-1.333501 0-1.733552-26.26652-1.733552-27.33318 0-.53333.933451-1.6.933451-3.33332 0-1.33332-.666751-3.46665-1.333502-4.66664-1.333502s-4.79997-1.866902-7.99995-4.000504c-3.19999-2.266953-6.79997-4.000505-7.86663-4.000505-1.19999 0-2.13332-.666751-2.13332-1.333502 0-.8001-1.19999-1.333501-2.66665-1.333501s-2.66665-.666751-2.66665-1.333502c0-.8001-4.39998-1.333501-10.53328-1.333501-5.86663 0-11.0666-.666751-11.4666-1.333502-.4-.800101-1.86666-1.333501-3.06665-1.333501-1.33333 0-6.1333-4.267205-10.79994-9.334511l-8.39995-9.33451h-17.73324-17.73323l-.8 3.467104c-1.46665 5.734056-4.5333 9.33451-10.13327 11.868163-2.93332 1.333502-5.33331 3.200404-5.33331 4.267205 0 .933451-.53333 1.733552-1.33332 1.733552-1.73333 0-1.73333 6.267457 0 7.334258 3.19998 2.000253-1.99999 4.533905-10.79994 5.467357-5.06664.5334-9.59995 1.466851-9.99995 2.000252-.39999.666751-1.86665 1.200151-3.33331 1.200151-1.33333 0-2.53332.533401-2.53332 1.333502 0 .66675-1.46666 1.333501-3.33331 1.333501-1.86666 0-3.33332.533401-3.33332 1.333502 0 1.600202-5.86663 1.733552-9.06662.13335-1.19999-.666751-3.99997-2.000252-6.26663-2.933703-2.13332-1.066802-5.19997-2.933704-6.53329-4.267205-2.13333-1.733552-5.06664-2.266953-14.39992-2.266953-6.9333 0-12.79993.666751-14.39992 1.600202-1.99999 1.333501-2.93332 1.333501-4.26665 0-.79999-.800101-2.53332-1.600202-3.59998-1.600202-1.19999 0-5.3333-3.333754-9.19994-7.600959-7.46663-7.867659-17.06658-13.735065-22.79988-13.735065-3.86664-.13335-8.13329-2.800353-8.13329-5.200656 0-.800101-.53333-1.466852-1.33332-1.466852-.66666 0-1.33333-1.466852-1.33333-3.333754 0-4.800605-5.86663-16.402068-9.86661-19.469122-1.86666-1.466851-3.46665-3.600454-3.46665-4.667255s-.53333-1.866902-1.33332-1.866902c-.66666 0-1.33333-1.200152-1.33333-2.667003 0-1.466852.66667-2.667003 1.33333-2.667003.79999 0 1.33332-.933451 1.33332-2.000253 0-1.200151 1.46666-3.733804 3.19999-5.600706 4.9333-5.200656 7.19996-10.001261 5.19997-10.668012-.93333-.400051-1.73333-1.200152-1.73333-1.866902 0-.666751-2.13332-3.333754-4.66664-5.734057-2.53332-2.533653-4.66664-5.867407-4.66664-7.467608 0-1.600202-.93333-3.733805-1.99999-4.800606-1.06666-1.200151-1.99999-3.867154-1.99999-6.000757 0-2.933703-.66666-3.867154-2.66665-3.867154-1.46666 0-2.66665-.666751-2.66665-1.333502 0-.8001-2.13332-1.333501-4.66664-1.333501s-4.66664-.666751-4.66664-1.333502c0-.800101-1.06666-1.333501-2.26665-1.333501-1.33333 0-5.06664-3.067054-8.26662-6.667508-5.06664-5.867406-6.39997-6.667507-10.93328-6.667507-2.93331 0-5.19997.5334-5.19997 1.333501 0 .666751-1.46666 1.333502-3.19998 1.333502-1.86666 0-3.73331.5334-4.13331 1.333501-1.06666 1.733552-7.59996 1.733552-12.2666-.13335l-7.06663-2.800353c-1.86665-.800101-4.39997-1.866902-5.59996-2.533653-3.19999-1.600202-14.39992-1.466852-14.39992.13335 0 .666751-.66667 1.333502-1.46666 1.333502-3.73332 0-11.8666 13.735065-11.8666 20.002522 0 2.000253-.8 4.133855-1.59999 4.533906-1.33333.66675-1.33333.933451 0 1.600201.79999.400051 1.59999 1.866903 1.59999 3.333754 0 1.333502 1.46666 3.467104 3.33331 4.667256 2.79999 1.866902 4.13331 2.000252 6.79996.66675 1.86666-.800101 5.06664-1.466851 7.19996-1.466851s4.13331-.533401 4.53331-1.200152c.4-.66675 2.93332-1.600202 5.46664-2.000252l9.33328-1.600202c2.53332-.40005 5.06664-1.333501 5.46663-2.000252.4-.666751 2.66666-1.200151 5.19998-1.200151s4.79997-.533401 5.19997-1.200152c.39999-.5334 4.66664-1.466852 9.59994-1.866902 6.66663-.666751 9.19995-.40005 10.66661 1.066801 1.59999 1.600202 1.06666 2.667003-4.13331 7.600959-3.33331 3.200404-5.99997 6.267457-5.99997 6.800858 0 1.066801-3.06665 4.667255-10.93327 12.801614-4.9333 4.933956-16.39991 9.467861-24.26653 9.467861-10.13328 0-27.99984 6.400807-43.99975 15.735318-7.3333 4.267205-8.39996 4.533905-15.99991 3.867154-7.86663-.800101-15.99992-2.667003-29.19984-6.667507-9.46662-3.067054-17.19991-9.867911-19.46656-17.46887-.93333-3.333754-1.46666-7.734309-1.06666-9.867911l2.13332-10.267962c.66666-3.733804 1.86666-8.40106 2.66665-10.401312.8-2.133602 1.46666-5.467356 1.46666-7.600959 0-2.133602.66666-4.267204 1.33333-4.667255.79999-.40005 1.33332-6.267457 1.33332-12.934965 0-16.135368 3.33332-26.67003 10.39994-32.404087l6.79997-5.600706c1.86665-1.733552 4.13331-3.067053 4.79997-3.067053.8 0 2.79998-1.200152 4.66664-2.667003 1.86666-1.466852 4.39998-2.667004 5.59997-2.667004s2.39999-.5334 2.66665-1.066801c1.73332-4.533905 67.59962-26.93673 83.0662-28.270232 5.73331-.533401 5.99997-.2667 5.99997 8.66776 0 8.001009.4 9.20116 4.39998 13.601715 6.39996 7.067558 8.53328 9.067811 12.66659 11.201413 1.99999 1.066801 4.39998 2.667003 5.33331 3.467104.93332.933451 3.19998 2.133603 5.06663 2.533653 1.73333.40005 3.19999 1.333502 3.19999 2.000252 0 .666751 1.06666 1.200152 2.39998 1.200152 1.33333 0 2.93332.5334 3.73332 1.333501.66666.666751 4.9333 1.733552 9.46661 2.133603 7.99995.933451 8.26662.800101 12.93326-3.867155 2.66665-2.667003 4.79997-6.000757 4.79997-7.467608 0-1.466852.53333-2.933704 1.2-3.333754.66666-.400051 1.46666-3.067054 1.86665-5.734057 2.53332-20.535923 14.39992-24.936478 29.19984-10.934712 2.53332 2.400303 3.73331 4.800605 3.73331 7.734309 0 2.266952.66667 4.133854 1.33333 4.133854.79999 0 1.33332 1.466852 1.33332 3.067054 0 3.333754 9.86662 13.468365 16.39991 16.802119 4.13331 2.133603 3.86665 4.933956-.79999 10.001261-6.1333 6.534158-8.93329 10.401312-8.93329 12.268214 0 1.066802-.53333 1.866903-1.33332 1.866903-.66667 0-1.33333 2.667003-1.33333 6.000756 0 3.333754.66666 6.000757 1.33333 6.000757.79999 0 1.33332.933451 1.33332 2.133603 0 1.066801.93333 2.933703 1.99999 4.000504s2.66665 3.067054 3.59998 4.400555c3.46665 4.800606 19.86656 14.668517 40.39978 24.269728l7.19996 3.467104c1.33332.800101.13333 10.001261-1.46666 11.734813-4.26664 4.667256-5.06664 6.000757-3.99998 6.000757 1.33333 0 12.13327-7.600959 14.26659-10.001261 4.13331-4.533905 6.26663-12.668265 3.33331-12.668265-.66666 0-1.33332-.933451-1.33332-2.133602 0-3.600454-10.93328-12.134864-19.1999-15.201918-4.39997-1.600201-5.59997-2.800353-5.86663-5.734056-.26667-2.000252-1.06666-3.600454-1.73332-3.600454-.66667 0-1.2-2.667003-1.2-6.000757s-.53333-6.000757-1.33332-6.000757c-.66667 0-1.33333-1.200151-1.33333-2.667003 0-2.933703 3.46665-3.733804 4.26664-1.066801.4 1.200151 1.2 1.066801 2.79999-.533401 1.46666-1.466851 2.26665-4.400555 2.26665-8.267709 0-5.600706.26667-6.134107 3.33332-6.267457 1.86665-.13335 3.99997-.400051 4.66664-.533401.79999-.13335 2.53332-.40005 3.99997-.5334 3.06665-.133351 3.73332-4.400555 1.06667-6.400808-3.59998-2.800353-14.93325-8.001009-23.73321-11.068062-18.93322-6.534158-27.06651-12.534915-34.66647-25.60323-1.06666-2.000252-4.26664-6.134107-7.06663-9.46786-4.13331-5.067306-6.26663-6.400808-13.46659-8.26771-12.79993-3.467104-19.06656-10.668012-13.73325-15.868668 1.99999-2.000252 10.13327-6.134107 12.13326-6.134107.8 0 3.06665-2.533653 5.06664-5.734056 7.59996-11.734814 9.06662-12.934965 16.66657-12.934965 5.99997 0 7.19996.40005 9.46662 3.600454zm628.92982 261.766348c.4.666751 2.93332 1.333502 5.46664 1.333502 2.53331 0 4.5333.5334 4.5333 1.333501 0 .666751 1.73333 1.333502 3.86665 1.333502 2.26665 0 4.39997.5334 4.79997 1.333501.4.666751 2.53332 1.333502 4.53331 1.333502s4.13331.533401 4.93331 1.066801c.66666.666751 3.86664 1.866902 7.19996 2.800353 3.33331.933451 7.46662 2.400303 9.33328 3.067054 12.53326 4.933955 13.19992 7.334258 4.66664 16.268718-3.33332 3.467104-5.99997 7.200909-5.99997 8.26771s-.53333 1.866902-1.33333 1.866902c-.66666 0-1.33332 1.200151-1.33332 2.667003s-.53333 2.667003-1.33333 2.667003c-.66666 0-1.33332 1.200151-1.33332 2.667003s-.53333 3.733804-1.2 5.067306c-2.79998 5.600706-5.46663 12.534914-5.46663 14.268466 0 1.066801-.53333 2.000252-1.33333 2.000252-.66666 0-1.33332.933451-1.33332 2.133603 0 3.467104-7.06663 12.134864-12.13327 15.068567-3.86664 2.266953-7.19996 2.800353-16.26658 2.800353-6.26663 0-11.8666-.666751-12.26659-1.333501-.4-.800101-1.86666-1.333502-3.19999-1.333502-3.06665 0-16.66657-5.467356-17.1999-6.934208-.26666-.5334-1.33333-1.066801-2.26665-1.066801-.93333 0-7.06663-3.067054-13.59993-6.800858-6.39996-3.733804-14.53325-8.267709-17.9999-10.001261-14.13325-7.200908-18.26656-15.601968-19.33322-39.071595-.53333-10.267961-.13334-13.335015 1.86665-17.068819 2.13333-4.133855 2.79999-4.400555 9.33328-4.400555 3.73332 0 7.3333-.666751 7.7333-1.333502.53333-.800101 13.06659-1.333501 33.33314-1.333501 20.26656 0 32.79982.5334 33.33315 1.333501zm-1734.656982-637.013676-6.133299 2.933704c-2.666651 1.733552-9.199948 12.001513-9.199948 14.668516 0 4.000505-6.399965 3.733805-15.733246-.66675-22.933205-10.934713-34.399808-13.201665-39.199781-7.734309-1.333326 1.600202-2.666652 4.133855-3.066649 5.600706-.933329 4.533905-4.666641 30.137135-4.666641 32.004037 0 .933451 3.066649 3.067053 6.799962 4.800605 8.533286 3.867155 14.93325 10.534662 17.199904 17.73557.799995 3.067054 2.399986 7.200909 3.466647 9.201161 1.066661 1.866902 1.866656 4.667255 1.866656 6.134107 0 1.600202.666663 3.200403 1.333326 3.600454.799996.40005 1.333326 2.133602 1.333326 3.733804 0 2.133603.399998 2.400303 1.599991 1.200152.933328-.933452 2.666652-1.600202 3.999978-1.600202s3.59998-.666751 5.066638-1.333502c1.750701-.942143 3.529269-1.831544 5.333304-2.667003 1.466658-.800101 4.399975-1.333501 6.533297-1.333501 2.266654 0 4.399975.5334 4.799973 1.333501.53333.800101 9.066616 1.333502 21.333214 1.333502s20.799884.5334 21.333214 1.333501c.399998.666751 2.266654 1.333502 4.133311 1.333502 3.733312 0 9.066616 4.667255 10.533274 9.20116 1.866656 6.000757-.266665 10.001262-7.466625 13.201665-3.733312 1.600202-7.599957 2.933704-8.533286 2.933704-1.06666 0-2.266654.5334-2.666651 1.333501-.399998.666751-1.866657 1.333502-3.199982 1.333502-2.399987 0-14.266587 4.267205-19.066561 6.800857-1.333326.666751-3.333314 1.200152-4.399975 1.200152s-1.999989.5334-1.999989 1.333501c0 .666751-.666663 1.333502-1.466658 1.333502-1.866657 0-9.199949 7.467608-9.199949 9.20116 0 6.134107 6.266632 12.801615 18.666562 19.869173 8.266621 4.667255 9.066616 4.800605 21.999878 4.800605 16.266575 0 21.333214-1.066801 19.999888-4.267204-2.933317-6.667508-2.399987-7.867659 3.59998-9.334511 3.066649-.800101 9.999944-1.866902 15.066582-2.266953 6.533297-.66675 11.733268-2.133602 16.933239-4.933955 8.533286-4.533905 9.333281-4.533905 25.466525.933451 8.933283 3.200403 10.933272 3.467104 14.266587 2.000252 2.266654-.933451 3.999977-2.400303 3.999977-3.333754s.933328-2.400302 1.999989-3.333754c1.066661-.933451 1.999989-3.067053 1.999989-4.800605 0-1.600202.666663-3.467104 1.333326-3.867154 1.599991-1.066802 1.866656-30.003785.133332-30.003785-.53333 0-1.466658-4.400555-1.866656-9.867911s-1.333326-11.068062-2.133321-12.534914c-.799996-1.600202-1.466659-6.000757-1.466659-10.134612 0-4.000504-.53333-7.734309-1.333326-8.134359-.799995-.40005-1.333325-6.534157-1.333325-13.468365 0-11.601464-.266666-13.068315-2.933317-15.335268-3.999978-3.333754-4.666641-3.200403-14.93325 1.600202-12.399931 5.867407-20.133221 5.200656-36.133132-2.800353-6.533297-3.200404-13.333259-7.200908-15.199915-8.80111-1.866656-1.466852-6.133299-4.400555-9.466614-6.400808l-8.666618-5.200655c-1.466659-.933451-2.933317-2.000253-3.333315-2.400303-.933328-1.200152-11.8666-6.134107-15.999911-7.200908-6.533296-1.733552-7.333292-1.733552-11.33327-.266701zm-337.998112 13.201665-11.999933 13.068315c-2.933317 3.200404-6.66663 7.467609-16.933239 19.469122-1.333326 1.600202-5.733301 6.534158-9.733279 11.201413-12.399931 14.135116-13.199926 15.201918-12.799929 15.735318.266666.2667 3.333315-.5334 6.66663-1.600202 8.26662-2.800353 13.066593-2.667003 24.933194.666751l13.599924 3.467104c1.999989.40005 3.59998 1.200151 3.59998 1.866902s2.666652 1.200152 5.999966 1.200152c3.333315 0 5.999967.5334 5.999967 1.333501 0 .666751 3.333315 1.333502 7.333292 1.333502 3.999978 0 7.333293-.666751 7.333293-1.333502 0-.800101 1.199993-1.333501 2.666651-1.333501 1.333326 0 5.999967-3.467104 10.26661-7.734309s9.333281-8.53441 11.33327-9.467861c5.999966-3.067054 8.533285-13.468365 3.066649-13.468365-1.06666 0-1.999988-.666751-1.999988-1.333502 0-.800101-.799996-1.333501-1.866657-1.333501-2.399986 0-10.133276-4.267205-10.133276-5.734057 0-.533401-.933329-.933451-1.999989-.933451-1.092742-.028036-1.971956-.907367-1.999989-2.000252 0-1.066802-.533331-2.000253-1.199993-2.000253-1.333326 0-8.133288-12.801614-8.133288-15.468617 0-1.066801-.533331-1.866902-1.199994-1.866902s-1.866656-1.866903-2.799984-4.133855c-2.133321-4.933956-6.399964-9.201161-9.199949-9.201161-1.199993 0-5.999966 4.267205-10.799939 9.601211z"/><path d="m457.198484 258.135721c-2.133321.2667-3.733312 1.200151-3.733312 1.866902s-.933329 1.200152-1.999989 1.200152c-4.666641 0-21.466547 12.668264-31.866489 23.869677-3.06665 3.200403-6.533297 6.800857-7.999955 8.001009-1.333326 1.200151-6.799962 6.534157-12.133266 11.734813-5.333303 5.334006-10.133277 9.734561-10.533274 9.734561-.533331 0-2.133322 1.200152-3.733313 2.667003-1.599991 1.466852-3.733312 2.667003-4.666641 2.667003-.933328 0-1.733323.533401-1.733323 1.333502 0 .666751-.933328 1.333501-1.999989 1.333501s-1.999989.400051-1.999989 1.066802c0 2.933703-17.466569 6.934208-30.39983 6.934208-9.199949 0-20.799884 1.866902-43.733089 6.667507-33.99981 7.200908-48.39973 9.334511-62.79965 9.334511-6.133299 0-13.999921-.666751-17.466569-1.600202-4.66664-1.200151-6.266631-1.200151-6.666629.13335-.266665.800101-1.333326 2.400303-2.399987 3.333754-1.06666 1.066801-1.866656 2.533653-1.866656 3.333754s-.53333 1.466851-1.333326 1.466851c-.714095.051206-1.282127.619313-1.333326 1.333502 0 .800101-.666663 2.133602-1.333326 3.067053-5.999966 7.067558-7.999955 9.734562-7.999955 10.668013 0 .5334-.666663 1.733552-1.333326 2.667003-6.266632 7.334258-7.999955 9.867911-7.999955 11.201412 0 .800101-.399998 1.733552-1.066661 2.000253-.53333.13335-5.733301 7.867659-11.599935 17.068819l-11.33327 17.33552c-.399998.40005-1.599991 2.400303-2.666652 4.667255-1.066661 2.133603-2.533319 4.667256-3.333315 5.600707-.666663.933451-2.133321 2.533652-3.066649 3.600454-.799996 1.066801-1.599991 2.933703-1.599991 4.133854 0 1.066802-.533331 2.000253-1.199994 2.000253s-1.599991 1.066801-1.999988 2.266952c-1.733324 4.400555-4.133311 8.40106-5.066639 8.40106-.666663 0-1.066661 1.200151-1.066661 2.533653 0 1.466851-.399997 2.800353-.933328 3.067053-1.06666.400051-3.866645 5.200656-9.599946 16.402069-1.733324 3.600454-3.733313 6.800858-4.399976 7.067558-.53333.2667-1.06666 1.600202-1.06666 2.933703 0 1.333502-.399998 2.667003-.933328 2.933704-1.999989.800101-23.733201 44.1389-31.8664891 63.341322-1.3333259 3.200403-2.7999843 5.734056-3.4666473 5.734056-.5333303 0-1.0666607 1.466852-1.0666607 3.333754s-.5333304 3.333754-1.3333259 3.333754c-.6666629 0-1.3333259 1.466852-1.3333259 3.200404s-.9333281 3.867154-1.9999888 4.800605-1.9999888 2.800353-1.9999888 4.133855c0 1.333501-.5333304 2.800353-1.3333259 3.200403-.666663.400051-1.3333259 2.000253-1.3333259 3.467104 0 1.333502-.3999978 2.533653-1.0666607 2.533653-.9333282 0-3.5999799 6.800858-5.199971 12.934965-.3999978 1.733552-1.1999933 3.067054-1.8666562 3.067054-.666663 0-1.1999933 1.200151-1.1999933 2.667003 0 1.466851-.5333304 3.733804-1.1999933 5.067305-2.7999844 5.600707-5.4666362 12.534915-5.4666362 14.268467 0 1.066801-.5333303 2.000252-1.3333259 2.000252-.6666629 0-1.3333259 1.733552-1.3333259 3.733804s-.5333303 4.267205-1.0666607 4.933956c-.6666629.800101-2.266654 5.067306-3.7333125 9.601211-1.3333258 4.667255-2.9333169 8.401059-3.4666473 8.401059-.6666629 0-1.0666607 1.333502-1.0666607 3.067054 0 1.600202-1.4666585 7.067558-3.3333147 12.134864-1.8666562 5.067305-3.3333147 10.267961-3.3333147 11.601463 0 1.466851-.5333304 2.533653-1.3333259 2.533653-.666663 0-1.3333259 1.466851-1.3333259 3.333754 0 1.733551-.5333304 4.533905-1.1999933 6.267457s-2.266654 6.667507-3.4666473 11.068062c-1.3333259 4.400555-2.7999844 9.201161-3.4666473 10.668012-.5333304 1.466852-1.3333259 4.400555-1.7333237 6.667508-.2666652 2.133602-1.3333259 6.400807-1.9999888 9.334511-.7999955 2.933703-2.1333214 8.80111-3.0666496 12.934964-.9333281 4.267205-2.1333214 7.734309-2.6666517 7.734309-.5333304 0-1.0666607 2.667003-1.0666607 5.867407 0 3.333754-.5333304 6.267457-1.1999933 6.667508-.5333304.40005-1.4666585 4.133854-1.8666563 8.267709-.3999978 4.267205-1.3333259 8.001009-1.9999888 8.401059-.7999955.400051-1.5999911 3.733805-1.9999888 7.467609-1.4666585 12.001514-3.1999822 22.536176-4.7999732 27.336781-.7999956 2.533653-1.4666585 7.200908-1.4666585 10.267962 0 3.200404-.5333304 5.734056-1.3333259 5.734056s-1.3333259 4.400555-1.3333259 10.534662c0 5.867407-.66666295 11.068063-1.33332589 11.468113-.79999553.400051-1.33332589 3.600455-1.33332589 7.067559 0 3.467103-.93332812 11.601463-1.99998883 18.26897-1.06666071 6.534158-1.99998884 16.268719-1.99998884 21.602725 0 6.400807-.53333035 9.734561-1.59999106 10.134612-.93332812.2667-1.46665848.933451-1.06666071 1.333501.39999776.40005 4.93330578-2.000252 9.99994412-5.200656 5.199971-3.333754 10.5332746-6.534157 11.999933-7.334258 1.4666585-.666751 4.7999732-2.533653 7.3332924-4.000505 3.0666496-1.866902 8.7999509-3.200403 17.9998995-4.267205 7.3332924-.800101 13.9999219-2.133602 14.7999174-2.800353.7999955-.800101 3.0666495-2.667003 4.9333058-4.133855 1.9999888-1.466851 3.5999799-3.333753 3.5999799-4.267204.0616169-.894082.6325547-1.672736 1.4666584-2.000253.666663-.2667 1.8666563-6.134107 2.5333192-13.201665 1.1999933-12.668264 2.266654-17.202169 3.8666451-17.202169 2.5333192.13335 6.1332991 4.800605 10.3999419 13.335015 1.1999933 2.533653 3.0666496 5.467356 3.8666451 6.267457 1.9999889 2.133602 23.9998657 2.400303 25.1998597.40005.399997-.8001 3.466647-1.333501 6.799962-1.333501 3.199982 0 5.866634-.666751 5.866634-1.333502 0-.800101 2.666651-1.333501 5.999966-1.333501s5.999967-.666751 5.999967-1.333502c0-.800101 3.199982-1.333501 7.199959-1.333501 3.999978 0 7.733291-.666751 8.133288-1.333502.399998-.800101 5.199971-1.333501 10.666607-1.333501 5.466637 0 10.26661.5334 10.666607 1.333501.399998.666751 2.53332 1.333502 4.533299 1.333502 3.999987 0 6.666639 1.200151 15.733255 7.067558 4.266643 2.667003 7.066627 3.467104 11.466603 3.333754 7.199959-.400051 9.866611 1.600202 11.066605 7.867659.799995 4.533905-2.53332 21.069324-4.933306 23.736327-.666663.66675-1.199994 2.266952-1.199994 3.600454 0 1.333501-.53333 3.467104-1.199993 4.800605-2.133321 4.267205-4.399975 11.601464-5.066638 15.868668-.399998 2.400303-1.199994 4.400555-1.866656 4.400555-.666663 0-1.199994 2.933704-1.199994 6.667508 0 3.600454.666663 6.667508 1.333326 6.667508.799996 0 1.333326.8001 1.333326 1.733552 0 2.933703 4.399975 6.134107 12.133266 9.06781 15.199915 5.600706 45.86641.666751 53.333035-8.53441l3.866645-4.533905c.666663-.933451 1.333326-2.667003 1.333326-4.133855 0-1.333501.666663-3.067053 1.466659-3.867154 1.999988-2.000252-.666663-31.070586-2.933317-31.070586-.666663 0-1.199994-1.333501-1.199994-3.067053 0-1.600202-1.466658-5.600706-3.333314-8.80111-1.866657-3.067054-3.333315-6.934208-3.333315-8.267709 0-1.333502-.53333-2.533653-1.066661-2.533653-2.133321 0-4.13331-9.334511-2.799984-13.735066 2.133321-7.600959 3.866645-10.401312 13.199926-21.069324 6.266632-7.200908 6.66663-7.734309 6.66663-9.867911 0-1.066801.53333-2.000253 1.06666-2.000253.533331 0 2.799985-3.600454 4.933306-8.001009 2.266654-4.400555 4.399975-8.001009 5.066638-8.001009.533331 0 .933329-.666751.933329-1.466851 0-3.067054 15.333247-24.669779 22.933205-32.270737 4.399975-4.533905 10.79994-9.201161 15.333248-11.334763 7.066627-3.333754 9.066616-3.600454 24.399863-3.600454 9.199949 0 17.333237-.400051 18.266565-1.066801.799995-.533401 2.933317-3.867155 4.666641-7.334259 1.733323-3.467104 3.466647-6.534157 4.13331-6.667507.53333-.266701.933328-1.466852.933328-2.800354 0-2.400302 5.599969-8.80111 13.599924-15.468617 3.06665-2.533653 5.066638-5.600707 5.599969-8.66776 3.199982-16.268719 3.59998-17.33552 6.933294-17.33552 1.733324 0 3.199982.533401 3.199982 1.333502 0 .66675 1.199994 1.333501 2.666652 1.333501 1.599991 0 3.999978 1.200152 5.599969 2.667003 1.599991 1.466852 3.733312 2.667003 4.666641 2.667003 1.06666 0 3.066649 1.200152 4.66664 2.667003 1.466659 1.333502 4.799973 3.467104 7.19996 4.667256 2.399987 1.066801 5.199971 2.800353 6.133299 3.733804 1.599991 1.466852 16.933239 9.20116 23.066538 11.734813 2.799984 1.066801 8.133288 2.266953 14.666585 3.333754 4.799973.800101 12.399931-2.133602 16.533241-6.400807 5.333303-5.600707 10.799939-16.93547 10.799939-22.402826 0-5.867407-1.333325-7.734309-13.599924-20.002523-4.266642-4.267204-7.73329-8.401059-7.73329-9.33451 0-2.266953 9.066616-10.668012 11.33327-10.668012 1.066661 0 1.999989-.533401 2.266654-1.066802.666663-1.600201 12.666596-6.934208 15.466581-6.934208 1.199993 0 6.666629 1.200152 11.999933 2.667004 12.799928 3.600454 16.666573 3.333753 29.733167-1.333502 14.39992-5.067306 17.733234-5.067306 31.599823.13335 3.59998 1.466852 7.733291-.40005 11.199938-4.800605 3.866645-5.067306 10.666607-7.334259 21.066549-7.334259 11.199937 0 18.53323-2.933703 26.666518-10.934712 5.066638-4.800606 10.666607-15.201917 10.666607-19.869173 0-4.533905-4.399976-11.868163-8.266621-13.468365-1.999988-.933451-3.733312-2.133603-3.733312-2.533653 0-2.133602-11.199938-2.933703-51.99971-3.867154-23.866533-.533401-45.466413-1.600202-47.999732-2.400303s-5.999966-1.866902-7.599957-2.266953c-2.399987-.800101-3.06665-2.000252-3.06665-5.334006 0-3.467104 1.199993-5.200656 6.533297-9.734561 3.59998-3.067053 7.19996-5.600706 7.999955-5.600706.799996 0 1.466659-.533401 1.466659-1.200152 0-.5334 2.799984-2.533653 6.399964-4.133854l8.533286-4.267205c3.333314-1.466852 28.799839-1.333502 29.733167.2667.53333.800101 7.599958 1.333502 16.666574 1.333502s16.133243-.533401 16.666573-1.333502c.399998-.800101 4.399976-1.333501 8.799951-1.333501 4.399976 0 7.866623-.533401 7.866623-1.333502s5.999966-1.333502 15.199915-1.333502c8.799951 0 15.599913.533401 16.133243 1.333502.399998.800101 6.66663 1.333502 13.999922 1.333502s13.599924-.533401 13.999922-1.333502 1.733324-1.333502 2.799984-1.333502c1.066661 0 3.333315-1.333501 5.066639-3.067053 1.733323-1.600202 6.399964-5.600706 10.266609-8.93446s8.266621-7.467609 9.733279-9.201161l7.19996-7.867659c3.333315-3.867154 4.266643-5.867406 4.266643-10.401311 0-3.200404-.533331-6.134107-1.333326-6.534158-.666663-.40005-1.333326-2.533653-1.333326-4.533905s-.666663-4.267205-1.466659-5.067306c-.799995-.800101-1.999988-8.001009-2.666651-16.002018-.533331-7.867659-1.599991-15.868668-1.999989-17.73557-.533331-1.866902-6.533297-8.80111-13.466592-15.601968-12.39993-12.134864-17.733234-20.535924-17.733234-27.870182 0-1.733552-.53333-3.200404-1.333326-3.200404-.666663 0-1.333326-.933451-1.333326-2.133602 0-3.067053-3.333315-5.867407-7.19996-5.867407-4.13331 0-14.93325 4.800606-18.666562 8.26771-1.466659 1.333501-3.466647 2.400303-4.399975 2.400303-.933329 0-1.733324.5334-1.733324 1.333501 0 .666751-.933328 1.333502-1.999989 1.333502s-1.999989.5334-1.999989 1.333501c0 .666751-.933328 1.333502-1.999989 1.333502-1.06666 0-1.999988.5334-1.999988 1.333501 0 .666751-1.199994 1.333502-2.666652 1.333502-1.466659 0-2.666652.5334-2.666652 1.066801 0 1.866902-8.666618 4.267205-15.733245 4.267205-3.866646 0-6.933295-.666751-6.933295-1.333502 0-.800101-.799996-1.333501-1.733324-1.333501s-2.533319-1.333502-3.59998-2.800354c-1.06666-1.600201-2.799984-3.600454-3.59998-4.667255-.933328-.933451-1.733323-2.667003-1.733323-3.733804 0-1.200151-.533331-2.133603-1.333326-2.133603-.666663 0-1.333326-1.066801-1.333326-2.533652 0-1.333502-.933328-3.200404-1.999989-4.133855s-1.999989-2.533653-1.999989-3.467104c0-1.733552-1.199993-4.533905-4.266643-9.867911l-2.266654-4.667256c-1.866656-3.733804-7.999955-10.267961-12.799928-13.335015-5.466636-3.600454-27.199848-3.600454-37.999788-.13335-11.066605 3.733804-23.999866 10.801362-30.266498 16.668769-7.73329 7.334258-10.133276 13.068315-9.199948 21.736075 1.999989 19.069072 2.399986 21.869425 3.59998 23.069576 1.599991 1.733552 1.599991 24.669778-.133333 24.669778-.666663 0-1.333326 1.066801-1.333326 2.266953-.133332 2.800353-3.59998 7.067558-7.466625 9.20116-4.933306 2.800353-13.733256 3.467104-28.799839 1.866902-13.066594-1.333501-15.866578-1.333501-20.133221.400051-6.266632 2.667003-8.933283 8.93446-8.933283 21.469374 0 16.002019-5.333304 29.737084-13.333259 34.80439-10.666607 6.800858-22.399875 2.933703-32.266487-10.267962-2.133321-2.667003-3.733312-5.467356-3.733312-6.267457s-.533331-1.466852-1.199993-1.466852c-.666663 0-1.599992-1.066801-1.999989-2.400302-1.599991-4.400555-6.799962-13.068315-11.066605-18.535671-5.199971-6.534158-19.06656-14.001766-30.39983-16.268719-4.399976-.933451-9.866612-2.133602-12.133266-2.933703-2.266654-.666751-5.199971-1.200152-6.533297-1.200152-2.666652 0-10.666607-2.266952-14.266587-4.133854-1.333326-.666751-3.066649-1.200152-3.999978-1.200152-2.666651 0-11.199937-8.134359-13.599924-12.934964-2.399986-4.800606-3.066649-33.204188-.933328-37.471393.666663-1.200152 2.266654-4.533905 3.59998-7.334259 1.333326-2.667003 2.933317-4.933955 3.466647-4.933955.666663 0 1.066661-.800101 1.066661-1.733552 0-1.866902 9.999944-11.601463 11.999933-11.601463.799996 0 1.333326-.533401 1.333326-1.066802 0-3.867154 39.199781-20.269223 57.599678-24.269727 9.733279-2.000253 22.13321-4.933956 47.466402-11.334763 13.866589-3.467104 23.733201-6.400807 29.33317-8.80111l6.666629-2.667003c1.999989-.800101 4.666641-2.000253 5.866634-2.667003 1.333326-.666751 3.333315-1.200152 4.399975-1.200152 1.066661 0 1.999989-.66675 1.999989-1.333501 0-.800101 1.066661-1.333502 2.399987-1.333502 1.199993 0 3.733312-1.200151 5.599969-2.667003 1.866656-1.466851 3.866645-2.667003 4.399975-2.667003 1.866656 0 17.466569-11.068062 19.333225-13.601715 1.066661-1.333502 3.333315-4.000505 5.066639-5.734057 1.733323-1.733552 3.199982-4.133855 3.199982-5.334006 0-1.066801.666663-2.000252 1.333326-2.000252 1.866656 0 1.599991-15.468618-.266665-19.069072-3.733313-6.400807-18.799895-19.602472-22.66654-19.602472-1.333326 0-2.399987-.533401-2.399987-1.200152 0-.66675-2.666652-2.000252-5.999967-2.933703-3.333314-.933451-5.999966-2.266953-5.999966-2.800353 0-.533401-1.466659-1.066801-3.199982-1.066801-1.866656 0-3.733313-.666751-4.13331-1.333502-.399998-.800101-1.999989-1.333501-3.333315-1.333501s-5.999967-1.733552-10.26661-4.000505c-7.999955-4.133855-13.333258-5.467356-19.333225-4.400555zm-353.064695 754.095109c-10.9332725 11.60146-13.3332591 14.26847-13.3332591 15.60197 0 .5334-2.1333214 3.2004-4.6666406 5.8674-2.5333192 2.66701-4.6666406 5.33401-4.6666406 5.86741s-3.0666496 3.33376-6.7999621 6.00076c-6.3999642 4.66725-13.3332588 7.20091-30.9331606 11.46811-18.1332321 4.40056-32.2664865-2.00025-40.53310698-18.53567l-3.06664954-5.86741v20.26923c0 12.13486.53333035 20.40257 1.33332589 20.40257.66666294 0 1.46665847 5.20066 1.59999106 11.60146.39999777 11.06807.53333036 11.73482 3.46664731 12.13487 1.59999107.2667 2.93331696 1.0668 2.93331696 1.73355s2.933317 1.20015 6.5332969 1.20015c3.7333124 0 7.0666272.5334 7.4666249 1.3335.3999978.66675 3.1999822 1.3335 5.9999665 1.3335 2.7999844 0 5.5999688.5334 5.9999665 1.33351.3999978.66675 3.4666473 1.3335 6.6666295 1.3335 3.1999821 0 6.2666316.5334 6.6666294 1.3335.3999978.66675 3.4666473 1.3335 6.799962 1.3335 3.1999822 0 5.866634.5334 5.866634 1.3335 0 .66675 3.0666495 1.3335 6.6666294 1.3335 3.7333125 0 6.6666294.5334 6.6666294 1.3335 0 .66675 2.933317 1.33351 6.5332969 1.33351 3.7333125 0 7.0666272.5334 7.466625 1.3335.3999977.66675 3.7333125 1.3335 7.4666249 1.3335 3.5999799 0 6.533297.5334 6.533297 1.3335 0 .66675 2.133321 1.3335 4.666641 1.3335 2.533319 0 4.66664.5334 4.66664 1.3335 0 .66675 1.466659 1.3335 3.333315 1.3335s3.333315.53341 3.333315 1.33351c0 .66675.933328 1.3335 1.999988 1.3335 3.866645 0 15.199916 10.66801 18.266565 17.33552 3.06665 6.80086 5.066638 13.73506 5.066638 17.73557 0 2.00025.533331 3.60045 1.199994 3.60045s1.466658 1.3335 1.733323 2.80036c.266666 1.6002 1.999989 4.13385 3.866645 5.46735 3.199983 2.4003 3.866646 2.4003 7.999956.66675 5.199971-2.1336 7.73329-4.8006 11.733268-12.00151 2.399986-4.26721 2.799984-7.33426 2.799984-19.60247 0-8.93446-.53333-14.66852-1.333326-14.66852-.666663 0-1.333326-1.46685-1.333326-3.33375 0-1.86691-1.466658-6.40081-3.333315-10.26797-1.866656-3.7338-3.333314-7.4676-3.333314-8.00101 0-1.6002-6.266632-7.7343-7.999956-7.7343-.714094-.05121-1.282127-.61932-1.333325-1.33351 0-.8001-2.399987-1.3335-5.199971-1.3335-2.933317 0-5.733302-.66675-6.133299-1.3335-.399998-.8001-5.599969-1.3335-11.333271-1.3335-5.733301 0-10.933272-.66675-11.33327-1.3335-.399997-.8001-1.733323-1.3335-2.799984-1.3335-5.599969 0-12.533263-11.06807-12.533263-19.86918 0-6.80085 8.133288-26.80338 10.933272-26.80338.53333 0 1.066661-.93345 1.066661-2.00025s.666663-2.00025 1.333326-2.00025c.799995 0 1.333325-.66675 1.333325-1.46685s1.466659-3.33376 3.333315-5.73406 3.333315-5.73406 3.333315-7.20091c0-1.6002.666663-2.9337 1.333326-2.9337 1.866656 0 1.733323-5.46736-.266665-9.46786-1.866657-3.86716-6.66663-6.53416-11.999933-6.53416-2.933317 0-5.733302 1.8669-11.733268 8.26771zm327.998168 134.0169c-1.866656.2667-3.866645 1.20015-4.533308 1.86691-.799995.66675-2.133321 1.20015-3.066649 1.20015-3.06665 0-12.533264 6.9342-14.39992 10.66801-1.06666 2.00025-2.266654 6.80086-2.799984 10.66801-1.066661 8.00101-4.399976 12.80162-10.79994 15.46862-12.133265 5.20065-37.733122-2.4003-37.733122-11.06806 0-1.73356 1.733323-4.93396 3.866645-7.20091 2.266654-2.26695 3.599979-4.93396 3.199982-6.00076-.399998-.93345-3.733313-2.80035-7.599958-3.86715-5.599969-1.73356-8.399953-1.86691-16.133243-.5334-15.733246 2.53365-34.933138 9.73456-46.266408 17.20217-3.999978 2.667-5.066639 4.13385-5.066639 7.4676 0 2.40031.933328 6.00076 1.999989 8.00101 1.066661 2.13361 1.999989 5.20066 1.999989 6.80086 0 1.73355.666663 3.06705 1.333326 3.06705.799995 0 1.333326 3.60046 1.333326 8.13436 0 9.60121-1.866657 11.73482-9.599947 11.86817-6.533297 0-10.533274 2.00025-13.733256 6.80086-1.466659 2.1336-3.06665 3.86715-3.59998 3.86715-.666663 0-1.066661 1.20015-1.066661 2.667s-.53333 2.66701-1.333326 2.66701c-.666663 0-1.333326.66675-1.333326 1.6002 0 .8001-1.466658 4.5339-3.199982 8.26771-2.533319 5.20065-3.466647 9.86791-3.999978 19.46912-.933328 16.00202-2.533319 26.26998-4.533308 28.27023-.933328.93345-1.599991 2.667-1.599991 4.00051 0 1.3335-.53333 2.4003-1.333326 2.4003-.666663 0-1.333325.5334-1.333325 1.20015s-1.999989 4.80061-4.533308 9.06781c-2.399987 4.40056-5.466637 10.80136-6.799963 14.13512-1.333325 3.4671-2.933316 6.26745-3.466647 6.26745-.666663 0-1.199993.93345-1.199993 2.00026 0 1.8669-1.199993 4.66725-4.266643 10.00126-.53333 1.0668-1.466658 2.9337-1.866656 4.0005s-1.333326 3.06706-1.999989 4.26721c-.666663 1.3335-1.199993 3.86715-1.199993 5.73405 0 1.86691-.399998 3.33376-1.066661 3.33376-1.066661 0-3.866645 9.20116-5.199971 16.93547-.399998 2.4003-1.199993 4.40055-1.733324 4.40055-1.333326 0-2.933317 16.13537-2.933317 29.33703 0 12.80162 1.599991 26.67003 3.06665 26.67003.666663 0 1.199993 1.46686 1.199993 3.33376s1.466659 6.40081 3.333315 10.26796c1.866656 3.7338 3.333315 7.73431 3.333315 8.66776s.666663 1.73355 1.333326 1.73355c.799995 0 1.333325.93345 1.333325 2.00025 0 1.20016.933329 2.40031 1.999989 2.80036 1.066661.5334 1.999989 2.00025 1.999989 3.33375s.666663 2.53365 1.333326 2.53365c.799996 0 1.333326 1.20016 1.333326 2.66701s.666663 2.667 1.333326 2.667c.799995 0 1.333326 2.1336 1.333326 4.66726 0 2.53365-.533331 4.66725-1.333326 4.66725-.666663 0-1.333326 2.667-1.333326 5.86741 0 3.33375-.53333 6.40081-1.333326 6.80086-.666663.40005-1.333326 2.1336-1.333326 3.7338s-.933328 5.33401-1.999989 8.26771c-3.066649 8.53441-2.533319 11.20141 3.199982 16.53542 4.799974 4.40055 12.799929 8.93446 28.399842 16.00202 3.59998 1.46685 9.199948 4.13385 12.666596 5.73405 3.59998 1.6002 11.8666 6.93421 18.53323 12.00152 13.466591 10.00126 21.866544 14.26846 27.866511 14.40181 2.266654 0 9.333281-1.73355 15.733245-4.0005 6.533297-2.26695 14.266587-4.00051 17.199904-4.00051 12.799929 0 49.999721 15.06857 60.799661 24.53643 9.733279 8.53441 14.93325 14.53517 16.399908 18.66902.933328 2.66701 2.133322 4.80061 2.666652 4.80061s1.199993 1.6002 1.599991 3.60045c.666663 4.00051 3.199982 11.60147 5.066638 15.33527.666663 1.3335 1.199994 4.13385 1.199994 6.40081 0 2.1336.53333 4.0005 1.199993 4.0005s1.466658 2.93371 1.999989 6.66751c.53333 3.60045 1.466658 6.93421 2.133321 7.33426.799996.40005 1.333326 3.7338 1.333326 7.33426 0 3.60045.666663 6.9342 1.333326 7.33425.799995.40006 1.333326 4.93396 1.333326 10.00127 0 5.46735.53333 9.33451 1.466658 9.60121 2.266654.8001 3.999978 29.20368 5.199971 84.41064.933328 49.73961 3.199982 99.21252 4.666641 105.88002.666663 3.33376 10.133277 13.46837 12.399931 13.46837.53333 0 1.866656 1.20015 2.933317 2.667 1.06666 1.46685 2.666651 2.66701 3.599979 2.66701.933329 0 1.733324.5334 1.733324 1.0668 0 .66675 1.599991 2.00025 3.733313 3.06705 1.999988 1.0668 4.266642 2.4003 5.066638 3.2004.799996.66675 3.466647 2.80036 5.866634 4.66726s5.066638 3.86715 5.866634 4.66725c.799995.66676 3.066649 2.13361 4.933306 3.06706 1.866656 1.0668 5.066638 3.06705 6.933294 4.66725 6.799962 5.86741 8.399953 6.93421 11.733268 8.66776 1.866656 1.0668 5.199971 3.33376 7.333292 5.20066 2.133322 1.8669 5.999967 4.40055 8.666619 5.86741 2.799984 1.3335 5.733301 3.2004 6.666629 4.2672 1.066661.93345 7.333293 5.20066 13.866589 9.46786l15.599913 10.26796c1.999989 1.46685 3.999978 2.53366 4.533308 2.53366.533331 0 1.999989.93345 3.333315 2.1336 3.199982 2.9337 5.066638 1.46685 5.999967-4.93396.53333-2.80035 1.333325-5.20065 1.999988-5.20065s1.199994-.93345 1.199994-2.00026c0-7.06755 21.333214-29.47038 33.333147-35.07109 2.533319-1.20015 4.933306-2.53365 5.333303-2.9337.399998-.5334 2.666652-1.73355 5.066639-2.80035 2.266654-1.0668 4.266643-2.26695 4.266643-2.80036 0-.66675.933328-1.0668 1.999988-1.0668 1.999989 0 9.733279-4.0005 15.599913-8.13436 1.866657-1.46685 3.866645-2.53365 4.399976-2.53365.799995 0 5.599969-4.93395 9.999944-10.26796 5.599969-6.80086-5.333304-18.93572-18.666562-20.93597-6.1333-.93346-13.199927-2.13361-16.933239-2.93371-2.533319-.40005-3.06665-1.46685-3.06665-5.20065 0-2.53366.666663-4.66726 1.333326-4.66726.360402.02385.713569-.10897.968969-.3644.2554-.25544.388199-.60865.364357-.9691 0-1.20015 8.399953-9.46786 16.933239-16.66877 6.933294-5.60071 21.599879-4.93395 36.399797 1.6002 8.399953 3.86716 14.533252 3.73381 24.399863-.8001 4.933306-2.26695 11.199938-5.73405 13.999922-7.73431 7.599958-5.73405 17.333237-16.53542 19.866556-22.13612 1.199993-2.66701 2.666652-4.93396 3.333315-4.93396.53333 0 1.06666-.93345 1.06666-2.00025s.533331-3.06705 1.199994-4.40056c1.866656-3.60045 3.866645-11.06806 4.799973-18.00227.399998-3.4671 1.333326-6.26745 2.133321-6.26745.666663 0 1.199994-4.66726 1.199994-10.40131 0-5.73406.53333-10.93472 1.199993-11.60147.799995-.8001 1.599991-7.60096 1.866656-15.33527.666663-15.20191 3.333315-32.00403 5.199971-32.00403.53333 0 1.066661-1.8669 1.066661-4.00051 0-2.26695.53333-4.0005 1.199993-4.0005s1.466659-1.0668 1.999989-2.4003c2.133321-6.40081 11.066605-15.73532 19.333225-20.00253 5.066639-2.667 7.599958-2.9337 21.999877-2.80035 14.533253 0 17.066572-.2667 23.466536-3.2004 3.999978-1.73356 8.799951-4.53391 10.666607-6.26746l9.866612-8.40106 7.999955-6.93421c5.466636-5.20065 10.266609-7.33426 16.666574-7.33426 4.533308 0 6.799962.5334 6.799962 1.60021 0 .93345.666663.66675 1.466658-.66676 1.333326-2.26695 3.866645-5.20065 14.533252-16.93546l7.999956-9.33452c1.866656-2.26695 4.66664-5.6007 6.399964-7.33425 1.599991-1.73356 2.933317-3.73381 2.933317-4.40056 0-.5334 1.199993-3.60045 2.666652-6.66751 1.466658-3.06705 3.066649-7.60095 3.59998-10.00126.399997-2.26695 1.199993-4.93395 1.733323-5.6007.533331-.8001 1.333326-3.46711 1.733324-6.00076 1.599991-10.53466 6.266632-25.33653 7.866623-25.33653.666663 0 1.06666-.93345 1.06666-2.1336 0-1.0668 1.466659-4.00051 3.333315-6.40081s3.333315-5.06731 3.333315-5.86741c0-.93345.666663-1.6002 1.333326-1.6002.799995 0 1.333326-.66675 1.333326-1.3335 0-.8001 2.133321-4.8006 4.66664-8.80111 2.533319-4.0005 4.666641-8.13436 4.666641-9.20116 0-.93345.53333-2.1336 1.199993-2.53365.53333-.40005 1.466659-3.73381 1.999989-7.46761.53333-3.60046 1.466658-6.66751 2.133321-6.66751.799996 0 1.333326-9.20116 1.333326-23.20293 0-18.00227-.399998-24.00302-1.999989-26.93673-1.06666-2.1336-1.999988-4.93395-1.999988-6.26745 0-1.20015-.533331-3.33376-1.199994-4.66726-.666663-1.20015-2.799984-5.60071-4.799973-9.73456-4.399975-8.93446-7.066627-12.40156-16.133243-21.60272-8.399953-8.66776-13.333259-12.53492-18.799895-15.33527-2.399987-1.20015-4.399976-2.53365-4.399976-3.20041 0-.5334-.666663-1.0668-1.333326-1.0668-2.133321 0-7.066627-5.334-9.999944-10.66801-4.933305-8.66776-8.399953-12.53491-13.599924-14.80187-2.399986-.93345-4.399975-2.26695-4.399975-2.80035 0-.66675-1.733324-1.0668-3.999978-1.0668-2.133321 0-3.999977-.66675-3.999977-1.3335 0-.8001-2.666652-1.3335-5.866634-1.3335-3.333315 0-6.399965-.66675-6.799962-1.3335-.399998-.80011-4.933306-1.33351-10.133277-1.33351s-9.199949.5334-9.199949 1.33351c0 .66675-2.133321 1.3335-4.66664 1.3335-2.53332 0-4.666641.5334-4.666641 1.3335 0 .66675-2.133321 1.3335-4.666641 1.3335-2.533319 0-4.66664.5334-4.66664 1.3335 0 .66675-3.199982 1.3335-7.19996 1.3335s-7.73329-.66675-8.133288-1.3335c-.399998-.8001-3.466647-1.3335-6.799962-1.3335-3.199982 0-5.866634-.5334-5.866634-1.20015s-2.266654-1.46685-4.933306-1.8669c-2.799984-.40005-7.19996-1.33351-9.733279-2.00026-2.533319-.8001-9.199948-2.53365-14.666584-4.0005-13.199927-3.4671-24.133199-6.93421-26.933183-8.40106-1.333326-.66675-3.59998-1.20015-4.933306-1.20015-1.466659 0-3.06665-.66675-3.466648-1.3335-.399997-.8001-2.266654-1.3335-3.999977-1.3335-1.733324 0-3.59998-.66676-3.999978-1.33351-.399998-.8001-1.733324-1.3335-2.933317-1.3335s-6.533297-2.1336-11.733268-4.8006c-7.599957-3.73381-10.133276-5.73406-12.133265-9.60121-1.466659-2.66701-2.933317-5.20066-3.466648-5.33401-.666662-.2667-1.06666-4.2672-1.06666-8.93446s-.533331-8.93446-1.333326-9.33451c-.799996-.5334-1.333326-7.73431-1.333326-17.06882 0-8.93446-.666663-18.66902-1.466658-21.60272-.799996-2.93371-1.866657-7.20091-2.266655-9.60122-1.06666-4.93395-7.73329-13.73506-10.399941-13.73506-1.066661 0-1.866657-.66675-1.866657-1.3335 0-.8001-1.199993-1.3335-2.666651-1.3335-1.466659 0-2.666652-.66676-2.666652-1.33351 0-.8001-1.466659-1.3335-3.333315-1.3335s-3.333315-.66675-3.333315-1.3335c0-.8001-1.466658-1.3335-3.333314-1.3335-1.866657 0-3.333315-.66675-3.333315-1.3335 0-.8001-1.466659-1.3335-3.333315-1.3335s-3.333315-.66675-3.333315-1.33351c0-.8001-1.733323-1.3335-3.999977-1.3335-2.133322 0-3.999978-.66675-3.999978-1.3335 0-.8001-1.733324-1.3335-3.866645-1.3335-2.266654 0-4.399975-.66675-4.799973-1.3335-.399998-.8001-2.799985-1.3335-5.333304-1.3335s-4.933306-.66675-5.333303-1.3335c-.399998-.80011-2.533319-1.33351-4.666641-1.33351-2.133321 0-4.266643-.66675-4.66664-1.3335-.399998-.8001-2.133322-1.3335-3.59998-1.3335-3.06665 0-10.79994-2.26695-14.666585-4.13385-1.333326-.66675-3.59998-1.20015-5.066639-1.20015-2.666651 0-3.866645-.53341-10.266609-3.73381-1.733324-.93345-3.733312-1.6002-4.66664-1.6002-1.866657 0-23.999866-10.80136-25.066527-12.26821-1.466659-1.86691-22.266543-11.33477-27.999844-12.80162l-9.333281-2.26695c-1.866656-.40005-8.666618-1.3335-15.333248-2.00025-34.399808-3.60046-37.59979-4.66726-45.599745-14.40182-10.533275-12.80162-11.733268-13.60172-18.53323-14.26847-3.59998-.2667-7.999955-.13875-9.866612.2667zm1900.656053 365.77947c-.4.66675-2.26665 1.3335-4.13331 1.3335-1.73332 0-3.19998.5334-3.19998 1.3335 0 .66675-1.19999 1.3335-2.66665 1.3335-3.06665 0-15.06659 5.33401-15.73325 6.93421-.26666.5334-1.46666 1.0668-2.79998 1.0668-1.2 0-3.59998 1.20016-5.19997 2.66701s-3.59998 2.667-4.53331 2.667-3.86665 1.8669-6.39997 4.0005c-2.53331 2.13361-5.06663 4.00051-5.59996 4.00051-1.2 0-3.73332 7.86766-3.73332 12.00151 0 1.8669-2.66665 8.53441-5.99996 14.66852-3.33332 6.13411-5.99997 11.46811-5.99997 12.00151 0 .93345-5.86663 13.73507-7.99996 17.60222-.79999 1.3335-1.33332 3.60046-1.33332 4.93396 0 1.46685-.53333 2.9337-1.19999 3.4671-.66667.40005-1.6 2.53366-2.13333 4.66726-.53333 2.26695-1.46665 4.0005-2.13332 4.0005-.66666 0-1.19999 1.73355-1.19999 3.86716 0 2.26695-.53333 4.40055-1.33333 4.8006-.66666.40005-1.33332 2.53366-1.33332 4.53391 0 2.1336-.93333 5.6007-1.99999 7.60096-1.06666 2.1336-1.99999 6.1341-1.99999 8.80111 0 2.80035-.53333 5.0673-1.33333 5.0673-.79999 0-1.33332 6.26746-1.33332 16.00202s.53333 16.00202 1.33332 16.00202c.8 0 1.33333 1.0668 1.33333 2.53365 0 4.13386 9.86661 13.20167 16.26658 14.93522 7.06662 1.8669 17.46656.8001 25.86652-2.80035 6.1333-2.66701 19.06656-14.00177 19.19989-16.80212 0-.66675 1.33333-4.00051 2.93332-7.33426 2.79998-6.00076 4.39997-18.26897 5.86663-46.53921.4-6.9342 1.2-13.86841 1.73333-15.33526 3.86664-9.20116 6.26663-14.00177 7.19996-14.00177.53333 0 .93332-.8001.93332-1.6002 0-.93345 3.06665-4.53391 6.79997-8.00101 5.3333-4.93396 7.86662-6.40081 11.33327-6.40081 3.59998 0 4.79997.8001 6.53329 4.00051 1.06666 2.1336 1.99999 5.6007 1.99999 7.86766 0 5.6007 1.73332 6.00075 6.26663 1.73355 5.06664-4.80061 8.39996-10.26796 8.39996-13.60172 0-1.46685.66666-2.667 1.33332-2.667.8 0 1.33333-1.46685 1.33333-3.33375 0-2.53366-.93333-3.46711-3.59998-4.13386-5.06664-1.20015-7.99996-4.66725-9.06662-10.40131-.53333-2.667-1.46666-5.20066-2.13332-5.60071s-1.19999-6.9342-1.19999-14.53516c0-7.73431-.53333-14.26847-1.33333-14.66852-.66666-.40005-1.33332-2.00025-1.33332-3.4671 0-1.46686-.8-3.60046-1.86666-4.66726-2.26666-2.1336-13.59993-2.53365-14.79992-.5334z"/></g></g><circle cx="1521.6555" cy="753.658605" fill="#fff" mask="url(#b)" opacity=".033575" r="1106.85994"/></g><path d="m1194.08922 125.089216c-74.63572 0-135 60.096-135 134.4 0 100.8 135 249.6 135 249.6s135-148.8 135-249.6c0-74.304-60.36429-134.4-135-134.4zm0 182.505494c-26.59342 0-48.17647-21.504-48.17647-48s21.58305-48 48.17647-48c26.59341 0 48.17647 21.504 48.17647 48s-21.58306 48-48.17647 48z" fill="#64dd91" fill-rule="nonzero"/></g></svg>